<svg xmlns="http://www.w3.org/2000/svg" xmlns:xlink="http://www.w3.org/1999/xlink" width="2048" zoomAndPan="magnify" viewBox="0 0 1536 415.499983" height="554" preserveAspectRatio="xMidYMid meet" version="1.0"><defs><g/><clipPath id="52606bf023"><path d="M 55.382812 41.3125 L 477.875 41.3125 L 477.875 404.625 L 55.382812 404.625 Z M 55.382812 41.3125 " clip-rule="nonzero"/></clipPath><clipPath id="1a870ad52b"><path d="M 1 143 L 184.53125 143 L 184.53125 300.824219 L 1 300.824219 Z M 1 143 " clip-rule="nonzero"/></clipPath><clipPath id="ea8ac58969"><path d="M 6 0.464844 L 168 0.464844 L 168 182 L 6 182 Z M 6 0.464844 " clip-rule="nonzero"/></clipPath><clipPath id="fe396a8a09"><path d="M 218.730469 -158.488281 L 359.195312 108.601562 L 92.101562 249.070312 L -48.363281 -18.023438 Z M 218.730469 -158.488281 " clip-rule="nonzero"/></clipPath><clipPath id="d714104f10"><path d="M 4 44 L 158 44 L 158 141 L 4 141 Z M 4 44 " clip-rule="nonzero"/></clipPath><clipPath id="7f6e14a7d4"><path d="M 212.730469 -158.488281 L 353.195312 108.601562 L 86.101562 249.070312 L -54.363281 -18.023438 Z M 212.730469 -158.488281 " clip-rule="nonzero"/></clipPath><clipPath id="57c6a72fdf"><path d="M 86.054688 249.214844 L -54.410156 -17.878906 L 212.683594 -158.34375 L 353.148438 108.75 Z M 86.054688 249.214844 " clip-rule="nonzero"/></clipPath><clipPath id="03f897f852"><rect x="0" width="162" y="0" height="182"/></clipPath><clipPath id="ac8e8ef304"><path d="M 67 125 L 165 125 L 165 225 L 67 225 Z M 67 125 " clip-rule="nonzero"/></clipPath><clipPath id="aef86b0963"><path d="M 10.113281 31.175781 L 268.953125 78.054688 L 222.078125 336.894531 L -36.761719 290.015625 Z M 10.113281 31.175781 " clip-rule="nonzero"/></clipPath><clipPath id="ab6a19d5a8"><path d="M 10.113281 31.175781 L 268.953125 78.054688 L 222.078125 336.894531 L -36.761719 290.015625 Z M 10.113281 31.175781 " clip-rule="nonzero"/></clipPath><clipPath id="a1a9a0e184"><rect x="0" width="185" y="0" height="301"/></clipPath><clipPath id="c4a90844a1"><rect x="0" width="793" y="0" height="200"/></clipPath></defs><path fill="#c80909" d="M 475.28125 43.921875 L 58.414062 43.921875 L 266.800781 402.203125 Z M 475.28125 43.921875 " fill-opacity="1" fill-rule="nonzero"/><g clip-path="url(#52606bf023)"><path fill="#c80909" d="M 58.414062 41.5 L 475.28125 41.5 C 476.152344 41.5 476.929688 41.984375 477.414062 42.757812 C 477.800781 43.535156 477.800781 44.40625 477.414062 45.179688 L 268.929688 403.464844 C 268.542969 404.238281 267.671875 404.625 266.800781 404.625 C 265.929688 404.625 265.152344 404.140625 264.667969 403.464844 L 56.1875 45.179688 C 55.800781 44.40625 55.703125 43.535156 56.1875 42.757812 C 56.671875 41.984375 57.542969 41.5 58.414062 41.5 Z M 471.117188 46.339844 L 62.578125 46.339844 L 266.800781 397.363281 Z M 471.117188 46.339844 " fill-opacity="1" fill-rule="nonzero"/></g><g transform="matrix(1, 0, 0, 1, 175, 12)"><g clip-path="url(#a1a9a0e184)"><g clip-path="url(#1a870ad52b)"><path fill="#ffffff" d="M 163.984375 144.527344 C 162.707031 145.304688 162.734375 146.25 164.097656 148.507812 C 165.402344 150.667969 166.414062 152.855469 167.371094 155.574219 C 168.339844 158.316406 168.589844 162.960938 167.921875 165.796875 C 165.03125 178.113281 152.164062 185.460938 133.496094 185.457031 C 127.507812 185.457031 121.960938 184.972656 118.015625 184.101562 C 114.003906 183.21875 108.246094 182.882812 105.171875 183.351562 C 104.039062 183.527344 101.652344 184.03125 99.871094 184.472656 C 97.128906 185.15625 96.023438 185.28125 92.65625 185.273438 C 89.234375 185.265625 88.09375 185.132812 84.460938 184.300781 C 80.335938 183.355469 80.128906 183.335938 75.039062 183.480469 C 70.480469 183.613281 69.476562 183.734375 66.894531 184.472656 L 63.949219 185.3125 L 54.527344 185.3125 C 45.96875 185.3125 44.738281 185.246094 41.128906 184.621094 C 36.257812 183.773438 30.820312 182.027344 27.902344 180.371094 C 24.179688 178.257812 21.136719 174.855469 19.191406 170.640625 C 17.589844 167.171875 17.160156 165.144531 17.183594 161.167969 C 17.199219 158.148438 17.320312 157.269531 18.011719 155.128906 C 18.8125 152.652344 20.515625 149.035156 21.679688 147.328125 C 22.480469 146.152344 22.441406 145.578125 21.511719 144.847656 C 20.242188 143.847656 18.265625 144.011719 16.402344 145.261719 C 12.859375 147.648438 9.703125 150.941406 6.699219 155.390625 C 3.761719 159.738281 1.96875 165.144531 1.414062 171.324219 C 0.875 177.339844 2.121094 184.027344 4.75 189.25 C 6.0625 191.859375 8.878906 195.582031 11.023438 197.550781 C 15.539062 201.691406 24.5625 206.121094 32.589844 208.136719 C 33.320312 208.320312 34.628906 208.671875 35.5 208.921875 L 37.085938 209.371094 L 34.027344 210.363281 C 32.347656 210.90625 29.382812 212.15625 27.4375 213.136719 C 23.957031 214.894531 9.503906 224.359375 8.941406 225.25 C 8.132812 226.53125 9.699219 228.125 14.09375 230.492188 C 22.316406 234.929688 32.75 235.925781 40.71875 233.03125 C 43.542969 232.003906 46.886719 229.972656 49.082031 227.941406 L 51.0625 226.109375 L 51.21875 231.472656 C 51.496094 241.007812 52.890625 244.300781 59.75 251.625 C 64.195312 256.375 65.230469 258.59375 66.300781 265.703125 C 66.816406 269.113281 66.851562 270.414062 66.472656 272.113281 C 66.324219 272.792969 66.039062 274.6875 65.84375 276.324219 C 65.160156 281.984375 66.484375 284.929688 72.242188 290.585938 C 74.238281 292.546875 75.875 294.261719 75.875 294.390625 C 75.875 294.808594 79.792969 297.835938 81.332031 298.609375 C 84.539062 300.21875 85.832031 300.429688 92.511719 300.433594 C 98.15625 300.4375 98.886719 300.378906 100.902344 299.753906 C 103.777344 298.863281 106.597656 297.183594 108.421875 295.273438 C 109.222656 294.433594 111.410156 292.203125 113.277344 290.320312 C 117.105469 286.453125 118.265625 284.550781 119.035156 280.855469 C 119.53125 278.488281 119.445312 276.839844 118.675781 274.0625 C 118.292969 272.671875 118.269531 271.773438 118.53125 268.304688 C 119.085938 260.792969 120.945312 256.53125 125.992188 251.171875 C 129.792969 247.140625 131.167969 245.160156 132.421875 241.914062 C 133.738281 238.507812 134.152344 235.785156 134.164062 230.421875 L 134.171875 225.777344 L 135.570312 227.128906 C 138.507812 229.96875 142.542969 232.199219 147.339844 233.632812 C 149.410156 234.253906 150.746094 234.4375 154.054688 234.554688 C 160.164062 234.769531 163.632812 233.875 171.484375 230.058594 C 175.441406 228.132812 176.277344 227.398438 176.277344 225.863281 C 176.277344 225.007812 175.476562 224.410156 167.738281 219.472656 C 160.136719 214.617188 156 212.40625 151.027344 210.535156 L 148.003906 209.398438 L 150.585938 208.75 C 161.59375 205.976562 170.105469 201.703125 175.152344 196.410156 C 179.691406 191.648438 182.65625 185.855469 183.960938 179.191406 C 184.679688 175.515625 184.671875 172.550781 183.9375 168.25 C 182.945312 162.453125 181.324219 158.472656 178.332031 154.496094 C 176.625 152.21875 171.816406 147.5625 168.972656 145.425781 C 166.742188 143.753906 165.597656 143.546875 163.984375 144.527344 M 12.796875 153.4375 C 10.382812 156.238281 9.496094 157.457031 8.332031 159.574219 C 5.914062 163.976562 4.738281 169.121094 5.027344 174.011719 C 5.960938 189.671875 13.777344 198.722656 30.832031 203.867188 C 35.167969 205.179688 45.386719 207.210938 45.761719 206.835938 C 45.835938 206.761719 46.148438 205.203125 46.457031 203.367188 C 47.214844 198.832031 48.167969 195.902344 50.101562 192.15625 L 51.738281 188.992188 L 49.589844 188.992188 C 46.886719 188.992188 40.929688 188.261719 37.457031 187.503906 C 33.921875 186.734375 31.53125 185.929688 28.234375 184.402344 C 20.78125 180.941406 17 176.753906 14.273438 168.945312 C 13.320312 166.21875 13.304688 166.085938 13.304688 161.019531 C 13.308594 156.238281 13.363281 155.714844 14.0625 153.730469 C 14.480469 152.558594 14.722656 151.597656 14.601562 151.597656 C 14.484375 151.597656 13.671875 152.425781 12.796875 153.4375 M 170.390625 151.644531 C 170.390625 151.742188 170.597656 152.398438 170.851562 153.105469 C 171.699219 155.46875 172.4375 159.375 172.445312 161.546875 C 172.46875 169.109375 168.125 177.054688 161.5625 181.457031 C 159.195312 183.046875 154.34375 185.417969 151.546875 186.351562 C 148.5625 187.347656 142.984375 188.351562 138.21875 188.746094 C 135.824219 188.945312 133.90625 189.183594 133.949219 189.269531 C 137.367188 196.109375 138.605469 199.636719 139.25 204.359375 L 139.601562 206.9375 L 140.789062 206.773438 C 152.242188 205.160156 160.527344 202.410156 167.375 197.949219 C 175.253906 192.8125 179.804688 184.671875 180.3125 174.804688 C 180.65625 168.125 179.160156 163.097656 174.945312 156.75 C 173.601562 154.730469 170.390625 151.128906 170.390625 151.644531 M 72.835938 186.945312 C 69.195312 187.371094 68.515625 187.5625 66.960938 188.613281 C 64.285156 190.417969 62.386719 192.496094 61.132812 194.992188 C 59.140625 198.96875 57.617188 205.089844 57.617188 209.140625 C 57.617188 210.597656 57.476562 211.152344 56.914062 211.917969 C 56.078125 213.050781 55.679688 215.089844 55.261719 220.394531 C 54.683594 227.699219 54.949219 235.628906 55.894531 239.1875 C 56.308594 240.753906 57.777344 243.632812 58.902344 245.082031 C 59.402344 245.730469 60.882812 247.386719 62.191406 248.761719 C 63.5 250.140625 65.007812 251.90625 65.539062 252.6875 C 67.78125 255.964844 69.734375 261.410156 70.183594 265.621094 L 70.363281 267.316406 L 71.804688 265.96875 C 73.542969 264.339844 75.675781 263.324219 78.195312 262.921875 C 79.230469 262.757812 80.152344 262.542969 80.246094 262.449219 C 80.339844 262.355469 80.648438 260.328125 80.929688 257.949219 C 82.179688 247.382812 81.019531 232.285156 78.535156 226.808594 C 76.605469 222.550781 71.195312 218.527344 65.886719 217.394531 C 63.464844 216.882812 62.34375 215.902344 62.863281 214.761719 C 63.558594 213.238281 65.566406 213.160156 69.53125 214.507812 C 74.75 216.28125 79.789062 220.699219 82.324219 225.726562 C 83.328125 227.714844 84.339844 232.09375 84.761719 236.25 C 85.289062 241.449219 85.222656 256.558594 84.660156 260 L 84.242188 262.546875 L 88.230469 262.761719 C 92.007812 262.964844 97.339844 262.800781 99.832031 262.402344 L 100.96875 262.222656 L 100.777344 260.867188 C 100.246094 257.136719 100.167969 255.332031 100.175781 247.4375 C 100.195312 234.992188 100.808594 230.191406 102.976562 225.648438 C 105.097656 221.203125 108.410156 217.925781 113.121094 215.625 C 117.734375 213.371094 121.546875 212.898438 122.566406 214.453125 C 123.460938 215.820312 122.113281 217.078125 119.453125 217.359375 C 116.875 217.632812 112.414062 220.003906 109.847656 222.464844 C 106.878906 225.3125 105.832031 227.65625 104.679688 234.039062 C 104.195312 236.738281 104.039062 239.09375 103.921875 245.609375 C 103.789062 253.023438 104.105469 260.226562 104.628906 261.589844 C 104.726562 261.839844 105.1875 262.011719 105.757812 262.011719 C 107.1875 262.011719 111.109375 264.105469 113.164062 265.964844 L 114.960938 267.589844 L 115.15625 266.109375 C 115.617188 262.640625 117.0625 257.90625 118.53125 255.046875 C 119.695312 252.785156 120.675781 251.4375 122.988281 248.910156 C 128.777344 242.578125 129.675781 240.542969 130.34375 232.28125 C 130.5625 229.589844 130.558594 226.878906 130.335938 223.089844 C 129.960938 216.8125 129.445312 213.511719 128.628906 212.179688 C 128.277344 211.605469 127.964844 210.398438 127.847656 209.160156 C 127.261719 203.074219 126.222656 198.953125 124.269531 194.980469 C 123.097656 192.59375 121.40625 190.738281 118.851562 189.03125 C 116.972656 187.777344 115.53125 187.363281 111.355469 186.886719 C 108.238281 186.53125 107.273438 186.632812 101.101562 187.976562 C 94.992188 189.308594 90.621094 189.378906 85.371094 188.238281 C 78.019531 186.644531 76.660156 186.503906 72.835938 186.945312 M 58.136719 189.105469 C 55.953125 189.417969 55.824219 189.480469 55.074219 190.582031 C 53.605469 192.753906 51.089844 199.222656 50.269531 202.941406 C 50.125 203.609375 49.96875 204.945312 49.925781 205.914062 L 49.851562 207.671875 L 51.523438 208.007812 C 53.59375 208.421875 53.664062 208.351562 54.097656 205.464844 C 54.527344 202.597656 55.410156 199.117188 56.304688 196.734375 C 57.0625 194.722656 59.652344 190.214844 60.410156 189.582031 C 60.878906 189.199219 61.019531 188.667969 60.636719 188.738281 C 60.515625 188.761719 59.390625 188.925781 58.136719 189.105469 M 124.75 189.226562 C 124.75 189.273438 125.265625 190 125.894531 190.84375 C 128.636719 194.515625 130.269531 198.757812 131.21875 204.675781 C 131.527344 206.609375 131.832031 208.242188 131.890625 208.300781 C 131.949219 208.359375 132.820312 208.257812 133.824219 208.070312 L 135.644531 207.730469 L 135.644531 206.625 C 135.644531 203 132.847656 194.648438 130.261719 190.558594 L 129.484375 189.332031 L 127.117188 189.234375 C 125.816406 189.183594 124.75 189.175781 124.75 189.226562 M 40.246094 212.402344 C 33.363281 214.003906 29.835938 215.703125 20.75 221.769531 L 14.058594 226.238281 L 16.285156 227.359375 C 21.390625 229.929688 28.28125 231.609375 32.296875 231.261719 C 35.511719 230.984375 39.1875 230.046875 41.59375 228.886719 C 43.898438 227.777344 48 224.253906 50.410156 221.3125 L 51.789062 219.628906 L 52.234375 215.925781 C 52.480469 213.886719 52.589844 212.128906 52.476562 212.015625 C 52.363281 211.902344 50.261719 211.78125 47.804688 211.746094 C 43.960938 211.691406 42.90625 211.785156 40.246094 212.402344 M 133.039062 211.925781 C 132.652344 212.171875 132.726562 213.355469 133.46875 218.617188 C 133.621094 219.722656 136.695312 223.320312 139.742188 225.960938 C 143.101562 228.875 147.195312 230.546875 152.410156 231.136719 C 155.921875 231.53125 159.359375 231.007812 163.566406 229.4375 C 166.261719 228.429688 170.976562 226.222656 170.976562 225.964844 C 170.976562 225.902344 167.664062 223.839844 163.613281 221.382812 C 150.703125 213.554688 145.632812 211.679688 137.414062 211.675781 C 135.226562 211.671875 133.257812 211.785156 133.039062 211.925781 M 61.578125 226.222656 C 61.253906 227.949219 63.15625 232.652344 65.050781 234.8125 C 66.984375 237.015625 70.527344 237.882812 73.210938 236.808594 C 74.332031 236.359375 74.417969 236.367188 75.175781 236.960938 C 75.867188 237.503906 76.042969 237.535156 76.566406 237.1875 C 77.738281 236.410156 77.789062 235.972656 76.863281 234.640625 C 76.136719 233.589844 75.601562 233.226562 73.574219 232.410156 L 71.152344 231.433594 L 71.753906 232.199219 C 72.457031 233.09375 72.164062 233.441406 70.691406 233.449219 C 69.308594 233.453125 67.886719 232.328125 66.894531 230.441406 C 66.402344 229.511719 65.488281 228.359375 64.832031 227.855469 C 64.183594 227.355469 63.519531 226.785156 63.355469 226.589844 C 63.191406 226.398438 62.769531 225.992188 62.417969 225.695312 C 61.78125 225.152344 61.777344 225.15625 61.578125 226.222656 M 122.25 226.5625 C 121.601562 226.78125 120.710938 227.03125 120.273438 227.117188 C 119.835938 227.203125 119.109375 227.613281 118.65625 228.03125 C 118.128906 228.519531 118.015625 228.734375 118.347656 228.628906 C 118.996094 228.421875 119.015625 228.984375 118.40625 230.445312 C 117.480469 232.65625 115.417969 234.007812 113.578125 233.601562 C 112.925781 233.460938 112.757812 233.292969 112.898438 232.925781 C 113.042969 232.554688 112.882812 232.597656 112.222656 233.109375 C 111.742188 233.480469 110.949219 234.035156 110.457031 234.347656 C 109.964844 234.65625 109.253906 235.328125 108.878906 235.835938 C 108.324219 236.585938 108.269531 236.808594 108.597656 237.015625 C 109.152344 237.367188 110.140625 237.34375 110.515625 236.96875 C 110.734375 236.75 111.402344 236.757812 112.757812 236.996094 C 118.140625 237.933594 121.644531 235.023438 123.429688 228.136719 C 124.042969 225.765625 124.15625 225.914062 122.25 226.5625 M 97.222656 266.460938 C 96.085938 266.59375 91.839844 266.621094 87.78125 266.523438 C 79.164062 266.316406 77.53125 266.457031 75.914062 267.554688 C 74.355469 268.601562 71.277344 272.121094 70.398438 273.855469 C 69.800781 275.027344 69.691406 275.671875 69.691406 278.003906 C 69.691406 280.503906 69.777344 280.933594 70.609375 282.601562 C 71.714844 284.8125 74.933594 288.148438 76.867188 289.082031 C 78.390625 289.820312 78.152344 289.824219 88.828125 288.976562 C 95.425781 288.453125 101.652344 288.628906 105.621094 289.445312 C 107.789062 289.890625 108.800781 289.402344 111.4375 286.625 C 113.621094 284.324219 114.460938 282.863281 115.167969 280.132812 C 116.261719 275.917969 115.230469 272.515625 111.898438 269.320312 C 109.03125 266.574219 104.234375 265.640625 97.222656 266.460938 M 104.839844 273.71875 C 104.335938 274.164062 102.71875 275.867188 101.25 277.503906 L 98.582031 280.480469 L 99.285156 281.511719 C 100.027344 282.609375 101.796875 283.507812 103.1875 283.503906 C 104.671875 283.5 106.980469 282.179688 107.875 280.824219 C 108.59375 279.742188 108.703125 279.285156 108.703125 277.445312 C 108.703125 275.503906 108.625 275.21875 107.789062 274.1875 C 106.660156 272.785156 106.019531 272.683594 104.839844 273.71875 M 77.878906 274.011719 C 76.75 275.222656 76.464844 275.953125 76.464844 277.609375 C 76.464844 283.621094 84.882812 285.878906 86.605469 280.328125 C 86.78125 279.765625 86.578125 279.4375 85.417969 278.414062 C 83.121094 276.378906 83.046875 276.347656 83.171875 277.425781 C 83.324219 278.730469 82.789062 279.972656 82.082031 279.972656 C 81.316406 279.972656 80.585938 278.890625 80.585938 277.757812 C 80.585938 276.671875 81.042969 276.144531 81.988281 276.144531 C 82.613281 276.144531 82.527344 275.992188 81.175781 274.671875 C 80.34375 273.863281 79.429688 273.203125 79.148438 273.203125 C 78.867188 273.203125 78.292969 273.566406 77.878906 274.011719 M 102.984375 276.921875 C 102.375 277.699219 102.21875 278.632812 102.550781 279.507812 C 102.996094 280.664062 105.023438 279.265625 105.023438 277.804688 C 105.023438 276.09375 103.988281 275.644531 102.984375 276.921875 M 92.59375 292.207031 C 92.503906 292.296875 90.394531 292.492188 87.90625 292.644531 C 85.417969 292.796875 82.726562 293.003906 81.921875 293.105469 L 80.460938 293.296875 L 81.183594 293.882812 C 82.570312 295.003906 85.375 296.210938 87.5625 296.628906 C 92.128906 297.503906 99.027344 296.984375 101.832031 295.554688 C 103.273438 294.820312 105.023438 293.550781 105.023438 293.242188 C 105.023438 293.128906 104.328125 293.003906 103.476562 292.96875 C 102.628906 292.929688 100.738281 292.707031 99.28125 292.472656 C 96.640625 292.050781 92.902344 291.898438 92.59375 292.207031 " fill-opacity="1" fill-rule="evenodd"/></g><g clip-path="url(#ea8ac58969)"><g clip-path="url(#fe396a8a09)"><g transform="matrix(1, 0, 0, 1, 6, -0.000000000000003553)"><g clip-path="url(#03f897f852)"><g clip-path="url(#d714104f10)"><g clip-path="url(#7f6e14a7d4)"><g clip-path="url(#57c6a72fdf)"><path fill="#ffffff" d="M 11.839844 68.40625 C 14.683594 73.023438 17.832031 76.75 23.042969 81.664062 C 32.382812 90.472656 39.671875 94.425781 61.996094 102.777344 C 66.449219 104.441406 77.539062 108.804688 86.640625 112.464844 L 103.183594 119.128906 L 102.867188 120.292969 C 102.394531 122.050781 102.492188 122.96875 103.332031 124.5625 C 104.644531 127.058594 107.816406 128.742188 110.222656 128.214844 C 111.53125 127.929688 113.015625 126.550781 113.777344 124.910156 C 114.066406 124.285156 114.40625 123.730469 114.53125 123.679688 C 114.652344 123.628906 117.644531 124.867188 121.171875 126.429688 C 128.316406 129.59375 133.09375 131.539062 138.25 133.386719 C 141.167969 134.429688 141.78125 134.761719 142.175781 135.507812 C 142.808594 136.71875 144.703125 138.632812 146.183594 139.566406 C 148.054688 140.746094 149.636719 140.617188 152.1875 139.074219 C 154.667969 137.578125 155.769531 136.253906 156.742188 133.621094 C 157.703125 131.015625 157.628906 128.097656 156.539062 125.609375 C 155.296875 122.777344 153.832031 121.964844 150.308594 122.167969 C 148.054688 122.296875 146.480469 121.789062 139.492188 118.664062 C 136.871094 117.492188 132.050781 115.464844 128.78125 114.160156 C 125.511719 112.855469 122.128906 111.496094 121.261719 111.136719 L 119.679688 110.488281 L 120.097656 109.085938 C 121.394531 104.710938 118.757812 101.285156 114.140625 101.34375 C 112.097656 101.367188 110.714844 102.117188 109.464844 103.875 L 108.472656 105.273438 L 107.003906 104.71875 C 101.234375 102.53125 87.96875 95.882812 80.976562 91.667969 C 70.746094 85.507812 64.933594 79.332031 60.992188 70.445312 C 60.054688 68.332031 59.089844 65.804688 58.851562 64.832031 C 57.933594 61.097656 57.828125 61.039062 51.101562 60.507812 C 45.820312 60.089844 38.269531 58.855469 33.757812 57.675781 C 29.71875 56.621094 22.632812 54.105469 19.398438 52.578125 C 17.09375 51.488281 8.828125 46 8.472656 45.320312 C 8.246094 44.886719 7.183594 44.871094 6.390625 45.289062 C 4.746094 46.152344 4.296875 50.382812 5.339844 55.160156 C 5.765625 57.097656 6.183594 58.054688 8.484375 62.335938 C 9.945312 65.050781 11.453125 67.78125 11.839844 68.40625 M 16.484375 68.125 C 19.867188 72.410156 20.859375 73.578125 23.140625 75.949219 C 26.167969 79.097656 30.152344 82.597656 33.113281 84.714844 C 38.28125 88.410156 47.0625 92.640625 58.898438 97.140625 C 62.320312 98.445312 65.984375 99.875 67.046875 100.328125 C 68.105469 100.777344 72 102.328125 75.703125 103.769531 C 85.832031 107.714844 96.867188 112.148438 99.757812 113.433594 C 101.175781 114.0625 102.851562 114.789062 103.488281 115.046875 L 104.640625 115.511719 L 105.886719 112.460938 C 106.570312 110.785156 107.097656 109.351562 107.058594 109.273438 C 107.015625 109.199219 105.5 108.492188 103.683594 107.707031 C 95.296875 104.074219 84.949219 98.828125 78.695312 95.035156 C 67.621094 88.324219 60.550781 80.40625 55.832031 69.4375 C 54.464844 66.257812 53.878906 65.121094 53.625 65.164062 C 53.015625 65.261719 45.777344 64.488281 42.78125 64.003906 C 30.320312 61.980469 18.273438 57.8125 11.472656 53.164062 L 9.59375 51.882812 L 9.699219 52.765625 C 10.046875 55.640625 10.574219 57.097656 13.027344 61.949219 C 14.417969 64.699219 15.976562 67.480469 16.484375 68.125 M 38.734375 81.742188 C 40.484375 83.429688 41.886719 84.167969 44.933594 85.015625 C 48.558594 86.019531 52.851562 86.140625 54.488281 85.28125 C 55.808594 84.585938 55.855469 84.015625 54.925781 80.078125 C 54.066406 76.453125 52.84375 74.234375 50.566406 72.1875 C 47.632812 69.542969 43.09375 69.101562 39.703125 71.132812 C 37.519531 72.4375 36.570312 73.832031 36.417969 75.945312 C 36.28125 77.871094 37.257812 80.3125 38.734375 81.742188 M 42.507812 78.757812 C 43.71875 79.722656 45.480469 80.3125 47.972656 80.578125 C 50.253906 80.824219 50.292969 80.816406 50.15625 80.152344 C 49.613281 77.523438 47.132812 75.027344 44.804688 74.769531 C 43.328125 74.609375 41.414062 75.242188 41.097656 76 C 40.828125 76.648438 41.488281 77.941406 42.507812 78.757812 M 108.070312 124.535156 C 109.351562 124.863281 110.199219 123.585938 111.800781 118.898438 C 112.597656 116.574219 113.855469 113.484375 114.601562 112.042969 C 116.492188 108.371094 117.179688 106.195312 116.675781 105.496094 C 116.160156 104.785156 114.710938 104.734375 113.992188 105.398438 C 113.484375 105.871094 108.324219 117.644531 107.371094 120.515625 C 106.914062 121.886719 106.8125 123.371094 107.132812 123.976562 C 107.238281 124.179688 107.660156 124.429688 108.070312 124.535156 M 117.371094 120.164062 C 120.117188 121.421875 138.75 129.507812 140.019531 129.996094 L 141.40625 130.527344 L 141.753906 129.304688 C 141.941406 128.632812 142.46875 127.5 142.917969 126.789062 C 143.367188 126.078125 143.761719 125.441406 143.792969 125.375 C 143.828125 125.308594 140.953125 123.972656 137.40625 122.410156 C 133.859375 120.847656 129.191406 118.769531 127.027344 117.792969 C 124.863281 116.8125 122.015625 115.636719 120.699219 115.175781 L 118.308594 114.339844 L 117.417969 116.535156 C 116.929688 117.742188 116.449219 118.929688 116.355469 119.175781 C 116.226562 119.519531 116.460938 119.746094 117.371094 120.164062 M 148.019531 136.199219 C 149.75 136.738281 151.695312 135.226562 152.726562 132.542969 C 153.363281 130.878906 153.378906 130.21875 152.84375 128.160156 C 152.453125 126.648438 152.378906 126.535156 151.558594 126.253906 C 149.605469 125.582031 147.691406 126.703125 146.675781 129.121094 C 145.332031 132.332031 145.941406 135.554688 148.019531 136.199219 " fill-opacity="1" fill-rule="evenodd"/></g></g></g></g></g></g></g><g clip-path="url(#ac8e8ef304)"><g clip-path="url(#aef86b0963)"><g clip-path="url(#ab6a19d5a8)"><path fill="#ffffff" d="M 116.417969 125.53125 C 115.800781 125.761719 115.109375 125.917969 114.882812 125.878906 C 114.652344 125.839844 114.386719 125.941406 114.292969 126.101562 C 114.195312 126.265625 113.910156 128.0625 113.652344 130.101562 C 113.398438 132.136719 113.039062 134.671875 112.855469 135.734375 L 112.523438 137.664062 L 111.734375 137.679688 C 110.488281 137.703125 108.140625 139.367188 107.253906 140.863281 C 105.941406 143.066406 105.957031 144.648438 107.308594 146.277344 L 107.964844 147.070312 L 101.308594 151.6875 C 94.59375 156.34375 91.960938 157.816406 87.972656 159.152344 C 85.203125 160.082031 81.039062 161.027344 77.789062 161.472656 C 74.074219 161.976562 71.695312 162.765625 69.882812 164.097656 C 68.410156 165.179688 68.351562 165.265625 68.101562 166.6875 C 67.804688 168.359375 68.121094 169.96875 68.960938 171.082031 C 69.320312 171.558594 69.472656 172.089844 69.390625 172.597656 C 69.085938 174.457031 70.277344 177.441406 71.53125 177.964844 C 72.117188 178.210938 72.242188 178.402344 72.144531 178.925781 C 71.980469 179.847656 73.597656 182.015625 74.914062 182.640625 C 76.070312 183.1875 77.6875 183.296875 78.570312 182.890625 C 79.5 182.460938 79.699219 182.617188 80.058594 184.042969 C 80.449219 185.617188 80.71875 185.988281 82.386719 187.28125 C 83.535156 188.167969 83.867188 188.292969 86.175781 188.699219 C 90.570312 189.46875 95.375 188.757812 105.902344 185.789062 C 115.957031 182.953125 116.371094 182.9375 127.515625 185.054688 C 134.519531 186.382812 136.328125 186.652344 137.625 186.558594 C 142.664062 186.199219 145.933594 183.335938 147.410156 177.988281 C 148.386719 174.453125 148.21875 172.269531 146.238281 162.929688 C 145.65625 160.183594 145.140625 157.128906 145.097656 156.136719 L 145.019531 154.335938 L 146.347656 153.492188 C 147.96875 152.464844 148.503906 151.488281 148.832031 148.953125 C 149.039062 147.34375 148.992188 146.878906 148.539062 145.992188 C 147.929688 144.800781 146.980469 143.972656 146.027344 143.796875 C 145.398438 143.683594 145.390625 143.640625 145.707031 141.976562 C 145.886719 141.039062 146.484375 138.914062 147.035156 137.257812 L 148.035156 134.238281 L 144.679688 133.628906 L 143.238281 138.265625 C 142.449219 140.816406 141.667969 143.125 141.503906 143.398438 C 140.945312 144.335938 135.761719 144.242188 128.632812 143.171875 C 123.707031 142.429688 119.660156 141.335938 117.039062 140.039062 L 115.976562 139.507812 L 116.476562 135.695312 C 116.753906 133.59375 117.179688 130.359375 117.425781 128.5 C 117.675781 126.640625 117.800781 125.117188 117.707031 125.113281 C 117.617188 125.109375 117.035156 125.296875 116.417969 125.53125 M 142.855469 146.738281 C 142.242188 147.382812 141.839844 149.265625 142.128906 150.15625 C 142.472656 151.222656 144.457031 151.976562 145.011719 151.253906 C 145.179688 151.03125 145.484375 150.335938 145.683594 149.703125 C 146.191406 148.113281 145.628906 146.765625 144.308594 146.410156 C 143.558594 146.207031 143.300781 146.265625 142.855469 146.738281 M 111.265625 141.132812 C 110.640625 141.613281 109.585938 143.59375 109.683594 144.109375 C 109.78125 144.625 110.765625 145.246094 111.769531 145.429688 C 112.804688 145.617188 113.546875 145 113.769531 143.761719 C 114.148438 141.675781 112.628906 140.085938 111.265625 141.132812 M 134.695312 147.265625 C 133.664062 147.8125 133.238281 148.554688 133.347656 149.621094 C 133.464844 150.789062 134.164062 151.792969 135.113281 152.15625 C 136.550781 152.707031 137.964844 151.761719 138.277344 150.046875 C 138.414062 149.289062 138.300781 148.910156 137.691406 148.109375 C 136.796875 146.933594 135.835938 146.660156 134.695312 147.265625 M 118.464844 144.234375 C 117.949219 144.445312 117.359375 145.574219 117.144531 146.765625 C 116.941406 147.871094 117.355469 148.761719 118.328125 149.316406 C 119.210938 149.820312 121.53125 148.488281 121.734375 147.363281 C 121.878906 146.582031 121.339844 145.148438 120.75 144.742188 C 120.089844 144.28125 118.960938 144.03125 118.464844 144.234375 M 126.824219 146.660156 C 126.445312 146.769531 125.851562 147.246094 125.503906 147.71875 C 124.96875 148.445312 124.890625 148.730469 125 149.515625 C 125.230469 151.148438 126.679688 152.261719 127.792969 151.660156 C 128.839844 151.09375 129.5625 148.878906 129.144531 147.515625 C 128.863281 146.609375 128.042969 146.304688 126.824219 146.660156 M 139.667969 153.511719 C 138.761719 154.523438 136.945312 155.410156 135.773438 155.414062 C 134.625 155.421875 132.855469 154.5625 132.066406 153.609375 L 131.449219 152.867188 L 130.433594 153.617188 C 129.875 154.03125 128.976562 154.464844 128.4375 154.582031 C 126.292969 155.054688 123.375 153.898438 122.484375 152.21875 L 122.074219 151.445312 L 120.882812 151.808594 C 120.097656 152.042969 119.078125 152.09375 117.902344 151.949219 C 115.761719 151.6875 114.859375 151.027344 114.351562 149.34375 L 114.03125 148.273438 L 112.699219 148.300781 C 111.460938 148.332031 111.1875 148.476562 108.808594 150.363281 C 105.796875 152.75 98.8125 157.527344 96.117188 159.039062 C 91.269531 161.761719 83.164062 164.394531 76.816406 165.308594 C 73.253906 165.820312 71.898438 166.625 71.628906 168.378906 C 71.378906 170.042969 72.019531 170.097656 75.03125 168.664062 C 76.726562 167.859375 80.234375 166.902344 81.394531 166.925781 C 82.46875 166.949219 83.289062 167.875 83.109375 168.855469 C 82.960938 169.675781 81.289062 170.742188 79.445312 171.191406 C 73.304688 172.695312 72.992188 172.808594 72.855469 173.566406 C 72.667969 174.597656 73.042969 174.976562 74.5 175.234375 C 76.316406 175.554688 77.585938 175.121094 80.746094 173.101562 C 84.566406 170.660156 86.25 170.277344 87.410156 171.589844 C 88.699219 173.042969 87.617188 173.972656 82.347656 175.941406 C 80.421875 176.660156 78.316406 177.429688 77.664062 177.648438 C 77.015625 177.867188 76.460938 178.171875 76.433594 178.324219 C 76.355469 178.761719 77.617188 179.722656 78.480469 179.878906 C 79.101562 179.988281 79.730469 179.722656 81.492188 178.597656 C 83.261719 177.46875 84.371094 176.996094 86.933594 176.292969 C 90.808594 175.230469 91.613281 175.195312 92.21875 176.070312 C 93.371094 177.726562 92.035156 178.632812 87.042969 179.585938 C 83.441406 180.269531 82.722656 180.910156 83.449219 182.789062 C 84.085938 184.4375 85.917969 185.378906 88.390625 185.328125 C 93.300781 185.230469 99.113281 184.15625 107.222656 181.84375 C 115.082031 179.601562 117.941406 179.496094 125.261719 181.175781 C 132.109375 182.746094 136.464844 183.382812 138.222656 183.0625 C 140.152344 182.714844 141.960938 181.445312 143.0625 179.667969 C 143.765625 178.53125 144 177.824219 144.367188 175.75 C 144.890625 172.761719 144.726562 171.25 143.210938 165.113281 C 142.15625 160.839844 141.703125 157.945312 141.683594 155.339844 C 141.671875 153.957031 141.566406 153.613281 141.03125 153.199219 C 140.410156 152.722656 140.371094 152.730469 139.667969 153.511719 M 163.878906 223.898438 C 163.285156 224.253906 163.136719 224.445312 163.40625 224.5 C 163.976562 224.613281 164.855469 224.125 164.796875 223.722656 C 164.761719 223.480469 164.488281 223.53125 163.878906 223.898438 " fill-opacity="1" fill-rule="evenodd"/></g></g></g></g></g><g fill="#000000" fill-opacity="1"><g transform="translate(516.748593, 210.696352)"><g><path d="M 20.375 0 L 20.375 -139.828125 L 36.75 -139.828125 L 91.6875 -56.921875 L 146.21875 -139.828125 L 162.59375 -139.828125 L 162.59375 0 L 145.015625 0 L 145.015625 -106.859375 L 98.671875 -37.15625 L 84.296875 -37.15625 L 37.953125 -107.0625 L 37.953125 0 Z M 20.375 0 "/></g></g></g><g fill="#000000" fill-opacity="1"><g transform="translate(786.419272, 210.696352)"><g><path d="M 3.390625 0 L 60.921875 -139.828125 L 77.296875 -139.828125 L 134.828125 0 L 116.25 0 L 103.078125 -31.765625 L 34.953125 -31.765625 L 22.171875 0 Z M 41.75 -48.140625 L 96.484375 -48.140625 L 69.109375 -115.25 Z M 41.75 -48.140625 "/></g></g></g><g fill="#000000" fill-opacity="1"><g transform="translate(1011.344987, 210.696352)"><g><path d="M 54.125 0 L 54.125 -123.046875 L 6.796875 -123.046875 L 6.796875 -139.828125 L 118.84375 -139.828125 L 118.84375 -123.046875 L 71.703125 -123.046875 L 71.703125 0 Z M 54.125 0 "/></g></g></g><g fill="#000000" fill-opacity="1"><g transform="translate(1223.885954, 210.696352)"><g><path d="M 20.375 0 L 20.375 -139.828125 L 73.703125 -139.828125 C 83.429688 -139.828125 91.890625 -137.992188 99.078125 -134.328125 C 106.265625 -130.671875 111.851562 -125.507812 115.84375 -118.84375 C 119.84375 -112.1875 121.84375 -104.195312 121.84375 -94.875 C 121.84375 -83.5625 118.910156 -74.207031 113.046875 -66.8125 C 107.191406 -59.425781 99.140625 -54.46875 88.890625 -51.9375 L 124.046875 0 L 102.875 0 L 68.71875 -50.140625 L 37.953125 -50.140625 L 37.953125 0 Z M 37.953125 -66.921875 L 71.703125 -66.921875 C 81.960938 -66.921875 89.890625 -69.347656 95.484375 -74.203125 C 101.078125 -79.066406 103.875 -85.957031 103.875 -94.875 C 103.875 -103.800781 101.078125 -110.726562 95.484375 -115.65625 C 89.890625 -120.582031 81.960938 -123.046875 71.703125 -123.046875 L 37.953125 -123.046875 Z M 37.953125 -66.921875 "/></g></g></g><g fill="#000000" fill-opacity="1"><g transform="translate(1446.614369, 210.696352)"><g><path d="M 20.375 0 L 20.375 -139.828125 L 37.953125 -139.828125 L 37.953125 0 Z M 20.375 0 "/></g></g></g><g transform="matrix(1, 0, 0, 1, 726, 204)"><g clip-path="url(#c4a90844a1)"><g fill="#000000" fill-opacity="1"><g transform="translate(1.767634, 144.05148)"><g><path d="M 12.828125 0 L 12.828125 -71.5625 L 22.328125 -71.5625 L 23.71875 -59.140625 C 26.289062 -63.460938 29.484375 -66.613281 33.296875 -68.59375 C 37.109375 -70.570312 42.050781 -71.5625 48.125 -71.5625 L 54.59375 -71.5625 L 54.59375 -60.796875 L 47.5625 -60.796875 C 43.25 -60.796875 39.34375 -59.921875 35.84375 -58.171875 C 32.351562 -56.429688 29.570312 -53.539062 27.5 -49.5 C 25.4375 -45.457031 24.40625 -40.035156 24.40625 -33.234375 L 24.40625 0 Z M 12.828125 0 "/></g></g></g><g fill="#000000" fill-opacity="1"><g transform="translate(72.629259, 144.05148)"><g><path d="M 36.265625 1.109375 C 27.617188 1.109375 20.859375 -0.84375 15.984375 -4.75 C 11.117188 -8.65625 8.6875 -13.96875 8.6875 -20.6875 C 8.6875 -27.207031 10.9375 -32.394531 15.4375 -36.25 C 19.945312 -40.113281 25.921875 -42.046875 33.359375 -42.046875 L 62.59375 -42.046875 L 62.59375 -44.671875 C 62.59375 -50.273438 60.84375 -54.660156 57.34375 -57.828125 C 53.851562 -61.003906 49.078125 -62.59375 43.015625 -62.59375 C 38.421875 -62.59375 34.421875 -61.554688 31.015625 -59.484375 C 27.617188 -57.421875 25.320312 -54.644531 24.125 -51.15625 L 12.40625 -51.15625 C 13.96875 -58.050781 17.484375 -63.472656 22.953125 -67.421875 C 28.421875 -71.367188 35.0625 -73.34375 42.875 -73.34375 C 49.125 -73.34375 54.59375 -72.171875 59.28125 -69.828125 C 63.96875 -67.484375 67.617188 -64.21875 70.234375 -60.03125 C 72.859375 -55.851562 74.171875 -51.007812 74.171875 -45.5 L 74.171875 0 L 64.65625 0 L 63.421875 -9.921875 C 56.898438 -2.566406 47.847656 1.109375 36.265625 1.109375 Z M 20.265625 -20.8125 C 20.265625 -17.320312 21.734375 -14.519531 24.671875 -12.40625 C 27.617188 -10.289062 31.617188 -9.234375 36.671875 -9.234375 C 41.640625 -9.234375 46.050781 -10.195312 49.90625 -12.125 C 53.769531 -14.0625 56.847656 -16.726562 59.140625 -20.125 C 61.441406 -23.53125 62.640625 -27.4375 62.734375 -31.84375 L 33.78125 -31.84375 C 29.820312 -31.84375 26.578125 -30.851562 24.046875 -28.875 C 21.523438 -26.90625 20.265625 -24.21875 20.265625 -20.8125 Z M 20.265625 -20.8125 "/></g></g></g><g fill="#000000" fill-opacity="1"><g transform="translate(174.646669, 144.05148)"><g><path d="M -6.34375 28.125 L -6.34375 17.375 L 1.65625 17.375 C 5.507812 17.375 8.3125 16.429688 10.0625 14.546875 C 11.8125 12.660156 12.6875 9.050781 12.6875 3.71875 L 12.6875 -71.5625 L 24.265625 -71.5625 L 24.265625 4 C 24.265625 12.082031 22.632812 18.125 19.375 22.125 C 16.113281 26.125 10.4375 28.125 2.34375 28.125 Z M 9.09375 -92.375 C 9.09375 -95.039062 9.941406 -97.222656 11.640625 -98.921875 C 13.347656 -100.617188 15.625 -101.46875 18.46875 -101.46875 C 21.226562 -101.46875 23.457031 -100.617188 25.15625 -98.921875 C 26.863281 -97.222656 27.71875 -95.039062 27.71875 -92.375 C 27.71875 -89.800781 26.863281 -87.664062 25.15625 -85.96875 C 23.457031 -84.269531 21.226562 -83.421875 18.46875 -83.421875 C 15.625 -83.421875 13.347656 -84.269531 11.640625 -85.96875 C 9.941406 -87.664062 9.09375 -89.800781 9.09375 -92.375 Z M 9.09375 -92.375 "/></g></g></g><g fill="#000000" fill-opacity="1"><g transform="translate(228.277075, 144.05148)"><g><path d="M 36.265625 1.109375 C 27.617188 1.109375 20.859375 -0.84375 15.984375 -4.75 C 11.117188 -8.65625 8.6875 -13.96875 8.6875 -20.6875 C 8.6875 -27.207031 10.9375 -32.394531 15.4375 -36.25 C 19.945312 -40.113281 25.921875 -42.046875 33.359375 -42.046875 L 62.59375 -42.046875 L 62.59375 -44.671875 C 62.59375 -50.273438 60.84375 -54.660156 57.34375 -57.828125 C 53.851562 -61.003906 49.078125 -62.59375 43.015625 -62.59375 C 38.421875 -62.59375 34.421875 -61.554688 31.015625 -59.484375 C 27.617188 -57.421875 25.320312 -54.644531 24.125 -51.15625 L 12.40625 -51.15625 C 13.96875 -58.050781 17.484375 -63.472656 22.953125 -67.421875 C 28.421875 -71.367188 35.0625 -73.34375 42.875 -73.34375 C 49.125 -73.34375 54.59375 -72.171875 59.28125 -69.828125 C 63.96875 -67.484375 67.617188 -64.21875 70.234375 -60.03125 C 72.859375 -55.851562 74.171875 -51.007812 74.171875 -45.5 L 74.171875 0 L 64.65625 0 L 63.421875 -9.921875 C 56.898438 -2.566406 47.847656 1.109375 36.265625 1.109375 Z M 20.265625 -20.8125 C 20.265625 -17.320312 21.734375 -14.519531 24.671875 -12.40625 C 27.617188 -10.289062 31.617188 -9.234375 36.671875 -9.234375 C 41.640625 -9.234375 46.050781 -10.195312 49.90625 -12.125 C 53.769531 -14.0625 56.847656 -16.726562 59.140625 -20.125 C 61.441406 -23.53125 62.640625 -27.4375 62.734375 -31.84375 L 33.78125 -31.84375 C 29.820312 -31.84375 26.578125 -30.851562 24.046875 -28.875 C 21.523438 -26.90625 20.265625 -24.21875 20.265625 -20.8125 Z M 20.265625 -20.8125 "/></g></g></g><g fill="#000000" fill-opacity="1"><g transform="translate(330.294485, 144.05148)"><g/></g></g><g fill="#000000" fill-opacity="1"><g transform="translate(377.996838, 144.05148)"><g><path d="M 10.34375 27.578125 L 10.34375 16.6875 L 17.375 16.6875 C 21.96875 16.6875 25.320312 16.019531 27.4375 14.6875 C 29.550781 13.351562 31.34375 10.707031 32.8125 6.75 L 36.125 -1.65625 L 2.203125 -71.5625 L 15.171875 -71.5625 L 31.296875 -37.78125 L 41.78125 -15.578125 L 50.46875 -37.78125 L 63.84375 -71.5625 L 76.109375 -71.5625 L 43.296875 11.171875 C 41.640625 15.484375 39.726562 18.832031 37.5625 21.21875 C 35.40625 23.613281 32.8125 25.269531 29.78125 26.1875 C 26.75 27.113281 22.976562 27.578125 18.46875 27.578125 Z M 10.34375 27.578125 "/></g></g></g><g fill="#000000" fill-opacity="1"><g transform="translate(469.812714, 144.05148)"><g><path d="M 45.078125 1.796875 C 37.640625 1.796875 31.070312 0.1875 25.375 -3.03125 C 19.675781 -6.25 15.21875 -10.707031 12 -16.40625 C 8.78125 -22.101562 7.171875 -28.582031 7.171875 -35.84375 C 7.171875 -43.195312 8.78125 -49.675781 12 -55.28125 C 15.21875 -60.894531 19.675781 -65.304688 25.375 -68.515625 C 31.070312 -71.734375 37.640625 -73.34375 45.078125 -73.34375 C 52.523438 -73.34375 59.097656 -71.734375 64.796875 -68.515625 C 70.492188 -65.304688 74.953125 -60.894531 78.171875 -55.28125 C 81.390625 -49.675781 83 -43.195312 83 -35.84375 C 83 -28.582031 81.390625 -22.101562 78.171875 -16.40625 C 74.953125 -10.707031 70.492188 -6.25 64.796875 -3.03125 C 59.097656 0.1875 52.523438 1.796875 45.078125 1.796875 Z M 18.75 -35.84375 C 18.75 -30.601562 19.875 -25.984375 22.125 -21.984375 C 24.375 -17.992188 27.472656 -14.894531 31.421875 -12.6875 C 35.378906 -10.476562 39.929688 -9.375 45.078125 -9.375 C 50.234375 -9.375 54.785156 -10.476562 58.734375 -12.6875 C 62.679688 -14.894531 65.78125 -17.992188 68.03125 -21.984375 C 70.289062 -25.984375 71.421875 -30.601562 71.421875 -35.84375 C 71.421875 -41.082031 70.289062 -45.675781 68.03125 -49.625 C 65.78125 -53.582031 62.679688 -56.6875 58.734375 -58.9375 C 54.785156 -61.1875 50.234375 -62.3125 45.078125 -62.3125 C 39.929688 -62.3125 35.378906 -61.1875 31.421875 -58.9375 C 27.472656 -56.6875 24.375 -53.582031 22.125 -49.625 C 19.875 -45.675781 18.75 -41.082031 18.75 -35.84375 Z M 18.75 -35.84375 "/></g></g></g><g fill="#000000" fill-opacity="1"><g transform="translate(576.517186, 144.05148)"><g><path d="M 44.8125 29.375 C 35.707031 29.375 28.117188 27.144531 22.046875 22.6875 C 15.984375 18.226562 12.3125 12.179688 11.03125 4.546875 L 22.75 4.546875 C 23.851562 8.867188 26.332031 12.289062 30.1875 14.8125 C 34.050781 17.34375 38.925781 18.609375 44.8125 18.609375 C 52.34375 18.609375 58.175781 16.585938 62.3125 12.546875 C 66.457031 8.503906 68.53125 2.804688 68.53125 -4.546875 L 68.53125 -11.3125 C 65.40625 -8 61.632812 -5.398438 57.21875 -3.515625 C 52.800781 -1.628906 48.019531 -0.6875 42.875 -0.6875 C 36.070312 -0.6875 29.984375 -2.269531 24.609375 -5.4375 C 19.234375 -8.613281 14.984375 -12.9375 11.859375 -18.40625 C 8.734375 -23.875 7.171875 -30.101562 7.171875 -37.09375 C 7.171875 -44.070312 8.734375 -50.273438 11.859375 -55.703125 C 14.984375 -61.128906 19.234375 -65.425781 24.609375 -68.59375 C 29.984375 -71.757812 36.070312 -73.34375 42.875 -73.34375 C 48.300781 -73.34375 53.285156 -72.332031 57.828125 -70.3125 C 62.378906 -68.289062 66.21875 -65.488281 69.34375 -61.90625 L 70.59375 -71.5625 L 80.109375 -71.5625 L 80.109375 -4.140625 C 80.109375 2.566406 78.660156 8.445312 75.765625 13.5 C 72.867188 18.5625 68.773438 22.472656 63.484375 25.234375 C 58.203125 27.992188 51.976562 29.375 44.8125 29.375 Z M 18.75 -37.09375 C 18.75 -32.21875 19.828125 -27.875 21.984375 -24.0625 C 24.148438 -20.25 27.160156 -17.285156 31.015625 -15.171875 C 34.878906 -13.054688 39.25 -12 44.125 -12 C 49.082031 -12 53.46875 -13.054688 57.28125 -15.171875 C 61.101562 -17.285156 64.09375 -20.25 66.25 -24.0625 C 68.40625 -27.875 69.484375 -32.21875 69.484375 -37.09375 C 69.484375 -41.957031 68.40625 -46.273438 66.25 -50.046875 C 64.09375 -53.816406 61.101562 -56.78125 57.28125 -58.9375 C 53.46875 -61.101562 49.082031 -62.1875 44.125 -62.1875 C 39.25 -62.1875 34.878906 -61.101562 31.015625 -58.9375 C 27.160156 -56.78125 24.148438 -53.816406 21.984375 -50.046875 C 19.828125 -46.273438 18.75 -41.957031 18.75 -37.09375 Z M 18.75 -37.09375 "/></g></g></g><g fill="#000000" fill-opacity="1"><g transform="translate(685.978775, 144.05148)"><g><path d="M 36.265625 1.109375 C 27.617188 1.109375 20.859375 -0.84375 15.984375 -4.75 C 11.117188 -8.65625 8.6875 -13.96875 8.6875 -20.6875 C 8.6875 -27.207031 10.9375 -32.394531 15.4375 -36.25 C 19.945312 -40.113281 25.921875 -42.046875 33.359375 -42.046875 L 62.59375 -42.046875 L 62.59375 -44.671875 C 62.59375 -50.273438 60.84375 -54.660156 57.34375 -57.828125 C 53.851562 -61.003906 49.078125 -62.59375 43.015625 -62.59375 C 38.421875 -62.59375 34.421875 -61.554688 31.015625 -59.484375 C 27.617188 -57.421875 25.320312 -54.644531 24.125 -51.15625 L 12.40625 -51.15625 C 13.96875 -58.050781 17.484375 -63.472656 22.953125 -67.421875 C 28.421875 -71.367188 35.0625 -73.34375 42.875 -73.34375 C 49.125 -73.34375 54.59375 -72.171875 59.28125 -69.828125 C 63.96875 -67.484375 67.617188 -64.21875 70.234375 -60.03125 C 72.859375 -55.851562 74.171875 -51.007812 74.171875 -45.5 L 74.171875 0 L 64.65625 0 L 63.421875 -9.921875 C 56.898438 -2.566406 47.847656 1.109375 36.265625 1.109375 Z M 20.265625 -20.8125 C 20.265625 -17.320312 21.734375 -14.519531 24.671875 -12.40625 C 27.617188 -10.289062 31.617188 -9.234375 36.671875 -9.234375 C 41.640625 -9.234375 46.050781 -10.195312 49.90625 -12.125 C 53.769531 -14.0625 56.847656 -16.726562 59.140625 -20.125 C 61.441406 -23.53125 62.640625 -27.4375 62.734375 -31.84375 L 33.78125 -31.84375 C 29.820312 -31.84375 26.578125 -30.851562 24.046875 -28.875 C 21.523438 -26.90625 20.265625 -24.21875 20.265625 -20.8125 Z M 20.265625 -20.8125 "/></g></g></g></g></g></svg>
