<svg xmlns="http://www.w3.org/2000/svg" xmlns:xlink="http://www.w3.org/1999/xlink" width="2000" zoomAndPan="magnify" viewBox="0 0 1500 1499.999933" height="2000" preserveAspectRatio="xMidYMid meet" version="1.0"><defs><g/><clipPath id="647a352e44"><path d="M 0 199.324219 L 1500 199.324219 L 1500 1489.324219 L 0 1489.324219 Z M 0 199.324219 " clip-rule="nonzero"/></clipPath><clipPath id="2c2af3186a"><rect x="0" width="1087" y="0" height="293"/></clipPath><clipPath id="e968a7482a"><path d="M 386 0 L 1453 0 L 1453 1016 L 386 1016 Z M 386 0 " clip-rule="nonzero"/></clipPath><clipPath id="3ec7b320a5"><path d="M 1085.085938 -49.664062 L 1452.335938 648.65625 L 754.015625 1015.90625 L 386.765625 317.585938 Z M 1085.085938 -49.664062 " clip-rule="nonzero"/></clipPath><clipPath id="535d5984b0"><path d="M 155 482 L 555 482 L 555 732 L 155 732 Z M 155 482 " clip-rule="nonzero"/></clipPath><clipPath id="1c1a6650df"><path d="M 699.085938 -49.664062 L 1066.335938 648.65625 L 368.015625 1015.90625 L 0.765625 317.585938 Z M 699.085938 -49.664062 " clip-rule="nonzero"/></clipPath><clipPath id="0eca7ce3b1"><path d="M 367.898438 1016.285156 L 0.648438 317.964844 L 698.96875 -49.28125 L 1066.214844 649.035156 Z M 367.898438 1016.285156 " clip-rule="nonzero"/></clipPath><clipPath id="a8ec5fb531"><path d="M 367.898438 1016.285156 L 0.648438 317.964844 L 698.96875 -49.28125 L 1066.214844 649.035156 Z M 367.898438 1016.285156 " clip-rule="nonzero"/></clipPath><clipPath id="a4909df485"><rect x="0" width="1067" y="0" height="1016"/></clipPath><clipPath id="73ad268a4f"><path d="M 690 691 L 944 691 L 944 952 L 690 952 Z M 690 691 " clip-rule="nonzero"/></clipPath><clipPath id="0a1867e4cb"><path d="M 539.660156 446.222656 L 1216.398438 568.785156 L 1093.835938 1245.527344 L 417.097656 1122.964844 Z M 539.660156 446.222656 " clip-rule="nonzero"/></clipPath><clipPath id="fbb55b2e2d"><path d="M 539.660156 446.222656 L 1216.398438 568.785156 L 1093.835938 1245.527344 L 417.097656 1122.964844 Z M 539.660156 446.222656 " clip-rule="nonzero"/></clipPath><clipPath id="1ca1847048"><path d="M 539.660156 446.222656 L 1216.398438 568.785156 L 1093.835938 1245.527344 L 417.097656 1122.964844 Z M 539.660156 446.222656 " clip-rule="nonzero"/></clipPath></defs><path fill="#ffffff" d="M 1490.804688 207.921875 L 9.882812 207.921875 L 750.171875 1480.722656 Z M 1490.804688 207.921875 " fill-opacity="1" fill-rule="nonzero"/><g clip-path="url(#647a352e44)"><path fill="#070404" d="M 9.882812 199.324219 L 1490.804688 199.324219 C 1493.898438 199.324219 1496.652344 201.042969 1498.371094 203.796875 C 1499.746094 206.546875 1499.746094 209.644531 1498.371094 212.394531 L 757.738281 1485.195312 C 756.363281 1487.949219 753.269531 1489.324219 750.171875 1489.324219 C 747.074219 1489.324219 744.324219 1487.601562 742.605469 1485.195312 L 1.972656 212.394531 C 0.597656 209.644531 0.253906 206.546875 1.972656 203.796875 C 3.691406 201.042969 6.789062 199.324219 9.882812 199.324219 Z M 1476.011719 216.523438 L 24.675781 216.523438 L 750.171875 1463.523438 Z M 1476.011719 216.523438 " fill-opacity="1" fill-rule="nonzero"/></g><g transform="matrix(1, 0, 0, 1, 250, 222)"><g clip-path="url(#2c2af3186a)"><g fill="#c80909" fill-opacity="1"><g transform="translate(1.2049, 215.47321)"><g><path d="M 20.5625 0 L 20.5625 -141.15625 L 37.109375 -141.15625 L 92.5625 -57.46875 L 147.609375 -141.15625 L 164.140625 -141.15625 L 164.140625 0 L 146.40625 0 L 146.40625 -107.890625 L 99.625 -37.515625 L 85.09375 -37.515625 L 38.3125 -108.09375 L 38.3125 0 Z M 20.5625 0 "/></g></g></g><g fill="#c80909" fill-opacity="1"><g transform="translate(273.431362, 215.47321)"><g><path d="M 3.421875 0 L 61.5 -141.15625 L 78.046875 -141.15625 L 136.125 0 L 117.359375 0 L 104.046875 -32.0625 L 35.296875 -32.0625 L 22.390625 0 Z M 42.140625 -48.59375 L 97.40625 -48.59375 L 69.765625 -116.359375 Z M 42.140625 -48.59375 "/></g></g></g><g fill="#c80909" fill-opacity="1"><g transform="translate(500.488387, 215.47321)"><g><path d="M 54.65625 0 L 54.65625 -124.21875 L 6.859375 -124.21875 L 6.859375 -141.15625 L 119.984375 -141.15625 L 119.984375 -124.21875 L 72.390625 -124.21875 L 72.390625 0 Z M 54.65625 0 "/></g></g></g><g fill="#c80909" fill-opacity="1"><g transform="translate(715.04321, 215.47321)"><g><path d="M 20.5625 0 L 20.5625 -141.15625 L 74.40625 -141.15625 C 84.21875 -141.15625 92.753906 -139.304688 100.015625 -135.609375 C 107.273438 -131.910156 112.921875 -126.703125 116.953125 -119.984375 C 120.992188 -113.265625 123.015625 -105.195312 123.015625 -95.78125 C 123.015625 -84.351562 120.054688 -74.910156 114.140625 -67.453125 C 108.222656 -59.992188 100.085938 -54.988281 89.734375 -52.4375 L 125.234375 0 L 103.859375 0 L 69.375 -50.609375 L 38.3125 -50.609375 L 38.3125 0 Z M 38.3125 -67.5625 L 72.390625 -67.5625 C 82.742188 -67.5625 90.742188 -70.015625 96.390625 -74.921875 C 102.035156 -79.828125 104.859375 -86.78125 104.859375 -95.78125 C 104.859375 -104.789062 102.035156 -111.78125 96.390625 -116.75 C 90.742188 -121.726562 82.742188 -124.21875 72.390625 -124.21875 L 38.3125 -124.21875 Z M 38.3125 -67.5625 "/></g></g></g><g fill="#c80909" fill-opacity="1"><g transform="translate(939.882136, 215.47321)"><g><path d="M 20.5625 0 L 20.5625 -141.15625 L 38.3125 -141.15625 L 38.3125 0 Z M 20.5625 0 "/></g></g></g></g></g><path fill="#000000" d="M 941.921875 742.5625 C 938.585938 744.597656 938.652344 747.066406 942.214844 752.960938 C 945.625 758.613281 948.277344 764.332031 950.777344 771.4375 C 953.304688 778.609375 953.957031 790.75 952.214844 798.171875 C 944.652344 830.367188 911.015625 849.574219 862.210938 849.566406 C 846.558594 849.5625 832.058594 848.292969 821.746094 846.023438 C 811.253906 843.714844 796.199219 842.835938 788.160156 844.0625 C 785.195312 844.515625 778.960938 845.835938 774.304688 846.996094 C 767.136719 848.78125 764.242188 849.101562 755.445312 849.085938 C 746.5 849.066406 743.519531 848.714844 734.019531 846.539062 C 723.230469 844.066406 722.691406 844.019531 709.386719 844.402344 C 697.464844 844.746094 694.835938 845.066406 688.089844 846.988281 L 680.390625 849.183594 L 655.757812 849.183594 C 633.390625 849.183594 630.171875 849.019531 620.734375 847.378906 C 607.996094 845.167969 593.777344 840.597656 586.152344 836.265625 C 576.425781 830.742188 568.464844 821.847656 563.378906 810.828125 C 559.191406 801.757812 558.070312 796.464844 558.125 786.0625 C 558.167969 778.167969 558.484375 775.875 560.296875 770.28125 C 562.394531 763.804688 566.839844 754.34375 569.882812 749.882812 C 571.976562 746.8125 571.875 745.3125 569.441406 743.394531 C 566.125 740.789062 560.957031 741.207031 556.085938 744.484375 C 546.820312 750.71875 538.574219 759.324219 530.714844 770.960938 C 523.039062 782.324219 518.351562 796.464844 516.902344 812.621094 C 515.496094 828.347656 518.746094 845.832031 525.621094 859.484375 C 529.054688 866.304688 536.414062 876.039062 542.023438 881.183594 C 553.832031 892.007812 577.425781 903.589844 598.410156 908.859375 C 600.316406 909.335938 603.738281 910.257812 606.015625 910.90625 L 610.160156 912.089844 L 602.167969 914.675781 C 597.773438 916.097656 590.019531 919.363281 584.941406 921.929688 C 575.835938 926.53125 538.050781 951.273438 536.585938 953.597656 C 534.472656 956.945312 538.566406 961.113281 550.050781 967.308594 C 571.550781 978.90625 598.824219 981.503906 619.65625 973.941406 C 627.042969 971.261719 635.78125 965.941406 641.523438 960.632812 L 646.703125 955.84375 L 647.113281 969.867188 C 647.835938 994.789062 651.480469 1003.402344 669.414062 1022.550781 C 681.039062 1034.96875 683.738281 1040.773438 686.539062 1059.355469 C 687.882812 1068.277344 687.976562 1071.667969 686.992188 1076.117188 C 686.597656 1077.894531 685.855469 1082.847656 685.339844 1087.125 C 683.5625 1101.925781 687.015625 1109.625 702.066406 1124.40625 C 707.292969 1129.539062 711.566406 1134.019531 711.566406 1134.359375 C 711.566406 1135.449219 721.8125 1143.363281 725.84375 1145.386719 C 734.21875 1149.59375 737.605469 1150.148438 755.058594 1150.15625 C 769.820312 1150.164062 771.726562 1150.011719 777 1148.378906 C 784.519531 1146.046875 791.894531 1141.65625 796.65625 1136.671875 C 798.757812 1134.472656 804.46875 1128.640625 809.351562 1123.714844 C 819.359375 1113.609375 822.390625 1108.632812 824.410156 1098.976562 C 825.707031 1092.785156 825.480469 1088.480469 823.472656 1081.207031 C 822.46875 1077.582031 822.410156 1075.234375 823.085938 1066.160156 C 824.542969 1046.523438 829.402344 1035.375 842.597656 1021.363281 C 852.527344 1010.828125 856.121094 1005.648438 859.402344 997.164062 C 862.847656 988.265625 863.925781 981.140625 863.957031 967.125 L 863.984375 954.972656 L 867.640625 958.507812 C 875.320312 965.9375 885.867188 971.765625 898.40625 975.515625 C 903.820312 977.136719 907.316406 977.617188 915.960938 977.921875 C 931.9375 978.488281 941 976.148438 961.523438 966.167969 C 971.871094 961.132812 974.0625 959.21875 974.0625 955.199219 C 974.0625 952.96875 971.964844 951.402344 951.738281 938.488281 C 931.863281 925.804688 921.046875 920.023438 908.042969 915.132812 L 900.140625 912.160156 L 906.886719 910.460938 C 935.667969 903.214844 957.925781 892.035156 971.117188 878.203125 C 982.988281 865.75 990.734375 850.601562 994.140625 833.183594 C 996.019531 823.574219 996.003906 815.820312 994.082031 804.578125 C 991.492188 789.429688 987.253906 779.023438 979.433594 768.621094 C 974.964844 762.671875 962.394531 750.496094 954.957031 744.910156 C 949.132812 740.535156 946.132812 739.996094 941.921875 742.5625 M 546.664062 765.855469 C 540.347656 773.179688 538.035156 776.359375 534.988281 781.902344 C 528.667969 793.40625 525.589844 806.851562 526.351562 819.640625 C 528.785156 860.585938 549.230469 884.242188 593.808594 897.699219 C 605.148438 901.125 631.867188 906.433594 632.84375 905.457031 C 633.035156 905.265625 633.851562 901.183594 634.65625 896.390625 C 636.648438 884.53125 639.136719 876.878906 644.195312 867.082031 L 648.464844 858.804688 L 642.851562 858.804688 C 635.785156 858.804688 620.210938 856.898438 611.128906 854.921875 C 601.886719 852.90625 595.640625 850.804688 587.023438 846.804688 C 567.535156 837.757812 557.648438 826.8125 550.523438 806.398438 C 548.03125 799.269531 547.992188 798.925781 547.992188 785.675781 C 547.996094 773.175781 548.136719 771.804688 549.972656 766.625 C 551.0625 763.554688 551.695312 761.042969 551.382812 761.042969 C 551.070312 761.042969 548.949219 763.210938 546.664062 765.855469 M 958.664062 761.167969 C 958.664062 761.417969 959.210938 763.136719 959.875 764.988281 C 962.09375 771.164062 964.019531 781.378906 964.039062 787.058594 C 964.097656 806.828125 952.742188 827.601562 935.589844 839.113281 C 929.402344 843.261719 916.714844 849.460938 909.398438 851.902344 C 901.605469 854.503906 887.015625 857.128906 874.554688 858.167969 C 868.304688 858.6875 863.285156 859.304688 863.398438 859.539062 C 872.335938 877.417969 875.574219 886.636719 877.257812 898.980469 L 878.175781 905.726562 L 881.277344 905.289062 C 911.222656 901.078125 932.878906 893.886719 950.78125 882.222656 C 971.382812 868.796875 983.28125 847.511719 984.605469 821.71875 C 985.503906 804.253906 981.59375 791.109375 970.570312 774.515625 C 967.0625 769.230469 958.664062 759.820312 958.664062 761.167969 M 703.621094 853.460938 C 694.109375 854.566406 692.332031 855.070312 688.265625 857.816406 C 681.265625 862.539062 676.308594 867.96875 673.03125 874.496094 C 667.820312 884.886719 663.84375 900.890625 663.84375 911.488281 C 663.84375 915.292969 663.476562 916.738281 661.996094 918.742188 C 659.8125 921.703125 658.769531 927.039062 657.675781 940.90625 C 656.167969 960.003906 656.867188 980.734375 659.332031 990.035156 C 660.421875 994.132812 664.257812 1001.65625 667.195312 1005.449219 C 668.507812 1007.140625 672.378906 1011.472656 675.796875 1015.070312 C 679.21875 1018.667969 683.160156 1023.285156 684.554688 1025.328125 C 690.40625 1033.902344 695.515625 1048.132812 696.6875 1059.140625 L 697.164062 1063.570312 L 700.925781 1060.050781 C 705.476562 1055.792969 711.050781 1053.136719 717.636719 1052.085938 C 720.339844 1051.65625 722.753906 1051.101562 723 1050.851562 C 723.246094 1050.601562 724.054688 1045.308594 724.789062 1039.085938 C 728.058594 1011.460938 725.023438 971.992188 718.527344 957.667969 C 713.480469 946.542969 699.335938 936.019531 685.453125 933.066406 C 679.125 931.71875 676.191406 929.164062 677.546875 926.179688 C 679.367188 922.191406 684.613281 921.992188 694.984375 925.515625 C 708.632812 930.148438 721.804688 941.699219 728.429688 954.847656 C 731.050781 960.046875 733.703125 971.492188 734.804688 982.355469 C 736.179688 995.945312 736.011719 1035.453125 734.539062 1044.445312 L 733.445312 1051.109375 L 743.867188 1051.667969 C 753.75 1052.199219 767.6875 1051.765625 774.203125 1050.730469 L 777.175781 1050.253906 L 776.671875 1046.710938 C 775.289062 1036.96875 775.078125 1032.242188 775.105469 1011.605469 C 775.148438 979.0625 776.761719 966.515625 782.421875 954.644531 C 787.964844 943.015625 796.628906 934.453125 808.945312 928.433594 C 821 922.539062 830.96875 921.304688 833.636719 925.375 C 835.976562 928.949219 832.457031 932.230469 825.496094 932.972656 C 818.757812 933.6875 807.097656 939.882812 800.390625 946.316406 C 792.628906 953.757812 789.894531 959.886719 786.878906 976.582031 C 785.605469 983.628906 785.199219 989.796875 784.894531 1006.832031 C 784.542969 1026.203125 785.378906 1045.042969 786.746094 1048.601562 C 786.996094 1049.253906 788.207031 1049.710938 789.691406 1049.710938 C 793.433594 1049.710938 803.691406 1055.183594 809.058594 1060.039062 L 813.753906 1064.292969 L 814.269531 1060.417969 C 815.472656 1051.351562 819.25 1038.972656 823.09375 1031.5 C 826.132812 1025.589844 828.695312 1022.058594 834.738281 1015.457031 C 849.875 998.902344 852.230469 993.582031 853.976562 971.980469 C 854.542969 964.945312 854.535156 957.855469 853.945312 947.949219 C 852.972656 931.535156 851.625 922.910156 849.492188 919.425781 C 848.570312 917.921875 847.753906 914.769531 847.445312 911.535156 C 845.917969 895.625 843.203125 884.851562 838.09375 874.460938 C 835.03125 868.226562 830.605469 863.371094 823.925781 858.910156 C 819.011719 855.628906 815.246094 854.550781 804.324219 853.300781 C 796.175781 852.371094 793.660156 852.636719 777.523438 856.152344 C 761.550781 859.632812 750.125 859.824219 736.394531 856.839844 C 717.179688 852.664062 713.621094 852.296875 703.621094 853.460938 M 665.195312 859.105469 C 659.488281 859.925781 659.144531 860.089844 657.195312 862.96875 C 653.347656 868.640625 646.769531 885.558594 644.628906 895.28125 C 644.246094 897.023438 643.84375 900.519531 643.730469 903.046875 L 643.53125 907.640625 L 647.910156 908.519531 C 653.316406 909.601562 653.5 909.421875 654.636719 901.871094 C 655.761719 894.378906 658.0625 885.277344 660.410156 879.050781 C 662.386719 873.792969 669.15625 862.003906 671.144531 860.355469 C 672.359375 859.34375 672.730469 857.957031 671.730469 858.144531 C 671.414062 858.203125 668.472656 858.636719 665.195312 859.105469 M 839.347656 859.417969 C 839.351562 859.539062 840.695312 861.445312 842.34375 863.648438 C 849.507812 873.246094 853.773438 884.335938 856.257812 899.808594 C 857.070312 904.867188 857.859375 909.132812 858.015625 909.289062 C 858.171875 909.445312 860.445312 909.175781 863.066406 908.6875 L 867.832031 907.800781 L 867.832031 904.90625 C 867.832031 895.425781 860.515625 873.597656 853.753906 862.90625 L 851.722656 859.695312 L 845.535156 859.441406 C 842.132812 859.304688 839.347656 859.292969 839.347656 859.417969 M 618.425781 920.015625 C 600.433594 924.203125 591.203125 928.636719 567.449219 944.5 L 549.960938 956.183594 L 555.78125 959.113281 C 569.125 965.835938 587.144531 970.226562 597.640625 969.316406 C 606.046875 968.589844 615.652344 966.136719 621.949219 963.105469 C 627.976562 960.207031 638.699219 950.996094 644.996094 943.308594 L 648.605469 938.898438 L 649.765625 929.21875 C 650.40625 923.894531 650.691406 919.296875 650.394531 919 C 650.101562 918.707031 644.609375 918.390625 638.183594 918.300781 C 628.140625 918.15625 625.378906 918.398438 618.425781 920.015625 M 861.019531 918.761719 C 860.003906 919.402344 860.203125 922.503906 862.140625 936.261719 C 862.542969 939.148438 870.582031 948.550781 878.546875 955.460938 C 887.324219 963.074219 898.023438 967.445312 911.660156 968.984375 C 920.84375 970.019531 929.828125 968.652344 940.832031 964.542969 C 947.875 961.910156 960.207031 956.140625 960.207031 955.472656 C 960.207031 955.304688 951.542969 949.910156 940.953125 943.492188 C 907.199219 923.027344 893.949219 918.117188 872.449219 918.105469 C 866.734375 918.105469 861.589844 918.398438 861.019531 918.761719 M 674.191406 956.140625 C 673.34375 960.65625 678.316406 972.953125 683.273438 978.601562 C 688.328125 984.359375 697.585938 986.625 704.601562 983.820312 C 707.539062 982.644531 707.761719 982.660156 709.742188 984.21875 C 711.546875 985.640625 712.007812 985.714844 713.378906 984.804688 C 716.4375 982.773438 716.570312 981.632812 714.15625 978.144531 C 712.253906 975.402344 710.859375 974.457031 705.554688 972.316406 L 699.226562 969.761719 L 700.800781 971.765625 C 702.640625 974.101562 701.867188 975.011719 698.019531 975.03125 C 694.402344 975.046875 690.683594 972.109375 688.089844 967.175781 C 686.808594 964.738281 684.414062 961.730469 682.703125 960.40625 C 681.007812 959.101562 679.269531 957.613281 678.839844 957.105469 C 678.410156 956.597656 677.304688 955.542969 676.386719 954.761719 C 674.726562 953.34375 674.714844 953.351562 674.191406 956.140625 M 832.808594 957.027344 C 831.113281 957.601562 828.792969 958.253906 827.648438 958.480469 C 826.503906 958.703125 824.597656 959.78125 823.414062 960.875 C 822.03125 962.148438 821.746094 962.707031 822.609375 962.433594 C 824.308594 961.894531 824.355469 963.359375 822.757812 967.175781 C 820.34375 972.960938 814.949219 976.492188 810.140625 975.4375 C 808.4375 975.0625 808 974.621094 808.367188 973.664062 C 808.742188 972.691406 808.320312 972.804688 806.589844 974.144531 C 805.34375 975.113281 803.269531 976.566406 801.980469 977.378906 C 800.691406 978.191406 798.832031 979.945312 797.851562 981.273438 C 796.402344 983.230469 796.261719 983.820312 797.117188 984.359375 C 798.566406 985.277344 801.15625 985.214844 802.136719 984.238281 C 802.703125 983.667969 804.457031 983.6875 808 984.304688 C 822.070312 986.753906 831.230469 979.152344 835.898438 961.144531 C 837.503906 954.949219 837.792969 955.335938 832.808594 957.027344 M 767.375 1061.335938 C 764.414062 1061.683594 753.308594 1061.757812 742.703125 1061.503906 C 720.164062 1060.964844 715.902344 1061.332031 711.667969 1064.195312 C 707.601562 1066.941406 699.554688 1076.136719 697.25 1080.667969 C 695.691406 1083.734375 695.402344 1085.421875 695.402344 1091.515625 C 695.402344 1098.054688 695.628906 1099.179688 697.804688 1103.539062 C 700.695312 1109.320312 709.109375 1118.035156 714.164062 1120.484375 C 718.152344 1122.414062 717.519531 1122.417969 745.4375 1120.203125 C 762.679688 1118.835938 778.964844 1119.292969 789.335938 1121.429688 C 795.003906 1122.597656 797.648438 1121.316406 804.546875 1114.054688 C 810.253906 1108.042969 812.453125 1104.222656 814.300781 1097.082031 C 817.152344 1086.0625 814.460938 1077.167969 805.742188 1068.8125 C 798.253906 1061.636719 785.710938 1059.191406 767.375 1061.335938 M 787.296875 1080.3125 C 785.976562 1081.472656 781.753906 1085.925781 777.914062 1090.207031 L 770.933594 1097.988281 L 772.773438 1100.691406 C 774.714844 1103.550781 779.339844 1105.910156 782.980469 1105.894531 C 786.851562 1105.882812 792.894531 1102.429688 795.230469 1098.894531 C 797.105469 1096.0625 797.398438 1094.867188 797.398438 1090.054688 C 797.398438 1084.984375 797.1875 1084.230469 795.011719 1081.535156 C 792.050781 1077.871094 790.375 1077.605469 787.296875 1080.3125 M 716.808594 1081.078125 C 713.859375 1084.242188 713.109375 1086.152344 713.109375 1090.488281 C 713.109375 1106.203125 735.121094 1112.101562 739.628906 1097.589844 C 740.085938 1096.121094 739.554688 1095.265625 736.523438 1092.585938 C 730.511719 1087.269531 730.324219 1087.1875 730.648438 1090 C 731.042969 1093.414062 729.648438 1096.667969 727.796875 1096.667969 C 725.796875 1096.667969 723.882812 1093.832031 723.882812 1090.875 C 723.882812 1088.039062 725.085938 1086.660156 727.554688 1086.660156 C 729.1875 1086.660156 728.964844 1086.257812 725.425781 1082.8125 C 723.25 1080.695312 720.867188 1078.960938 720.128906 1078.960938 C 719.390625 1078.960938 717.894531 1079.914062 716.808594 1081.078125 M 782.445312 1088.6875 C 780.847656 1090.71875 780.4375 1093.164062 781.316406 1095.449219 C 782.476562 1098.476562 787.777344 1094.820312 787.777344 1090.992188 C 787.777344 1086.523438 785.066406 1085.351562 782.445312 1088.6875 M 755.277344 1128.652344 C 755.046875 1128.882812 749.53125 1129.398438 743.027344 1129.792969 C 736.519531 1130.1875 729.480469 1130.730469 727.378906 1131 L 723.5625 1131.496094 L 725.453125 1133.023438 C 729.074219 1135.957031 736.40625 1139.117188 742.125 1140.210938 C 754.066406 1142.496094 772.097656 1141.140625 779.433594 1137.402344 C 783.203125 1135.484375 787.777344 1132.167969 787.777344 1131.351562 C 787.777344 1131.054688 785.957031 1130.734375 783.734375 1130.636719 C 781.511719 1130.539062 776.574219 1129.960938 772.765625 1129.347656 C 765.855469 1128.238281 756.082031 1127.847656 755.277344 1128.652344 " fill-opacity="1" fill-rule="evenodd"/><g clip-path="url(#e968a7482a)"><g clip-path="url(#3ec7b320a5)"><g transform="matrix(1, 0, 0, 1, 386, 0.000000000000112861)"><g clip-path="url(#a4909df485)"><g clip-path="url(#535d5984b0)"><g clip-path="url(#1c1a6650df)"><g clip-path="url(#0eca7ce3b1)"><g clip-path="url(#a8ec5fb531)"><path fill="#000000" d="M 173.921875 543.726562 C 181.363281 555.800781 189.589844 565.535156 203.210938 578.382812 C 227.617188 601.402344 246.667969 611.726562 305.015625 633.558594 C 316.65625 637.910156 345.636719 649.308594 369.421875 658.882812 L 412.664062 676.292969 L 411.839844 679.339844 C 410.597656 683.9375 410.855469 686.335938 413.046875 690.503906 C 416.476562 697.023438 424.765625 701.417969 431.054688 700.046875 C 434.472656 699.300781 438.355469 695.691406 440.34375 691.40625 C 441.105469 689.769531 441.992188 688.320312 442.316406 688.191406 C 442.636719 688.0625 450.453125 691.296875 459.679688 695.382812 C 478.351562 703.648438 490.828125 708.730469 504.316406 713.558594 C 511.9375 716.289062 513.539062 717.15625 514.566406 719.109375 C 516.230469 722.269531 521.171875 727.273438 525.042969 729.714844 C 529.933594 732.796875 534.066406 732.457031 540.738281 728.425781 C 547.21875 724.511719 550.105469 721.054688 552.640625 714.171875 C 555.152344 707.367188 554.957031 699.738281 552.105469 693.230469 C 548.863281 685.828125 545.035156 683.714844 535.828125 684.238281 C 529.933594 684.578125 525.824219 683.246094 507.558594 675.078125 C 500.703125 672.015625 488.105469 666.71875 479.5625 663.308594 C 471.023438 659.902344 462.175781 656.347656 459.90625 655.414062 L 455.777344 653.714844 L 456.863281 650.046875 C 460.253906 638.613281 453.371094 629.664062 441.300781 629.8125 C 435.953125 629.878906 432.34375 631.832031 429.078125 636.433594 L 426.484375 640.085938 L 422.648438 638.632812 C 407.566406 632.921875 372.898438 615.542969 354.617188 604.527344 C 327.886719 588.429688 312.6875 572.285156 302.390625 549.0625 C 299.941406 543.535156 297.421875 536.929688 296.796875 534.386719 C 294.394531 524.628906 294.121094 524.472656 276.539062 523.082031 C 262.734375 521.988281 243 518.769531 231.207031 515.6875 C 220.652344 512.929688 202.136719 506.351562 193.683594 502.359375 C 187.660156 499.515625 166.058594 485.167969 165.125 483.390625 C 164.53125 482.261719 161.757812 482.21875 159.679688 483.3125 C 155.386719 485.570312 154.214844 496.628906 156.941406 509.109375 C 158.046875 514.171875 159.144531 516.675781 165.160156 527.859375 C 168.976562 534.957031 172.921875 542.097656 173.921875 543.726562 M 186.070312 542.996094 C 194.902344 554.195312 197.5 557.25 203.464844 563.445312 C 211.375 571.667969 221.789062 580.820312 229.527344 586.351562 C 243.035156 596.011719 265.980469 607.070312 296.914062 618.832031 C 305.859375 622.234375 315.441406 625.980469 318.210938 627.15625 C 320.976562 628.335938 331.160156 632.382812 340.835938 636.152344 C 367.308594 646.46875 396.152344 658.054688 403.710938 661.414062 C 407.410156 663.058594 411.796875 664.953125 413.457031 665.625 L 416.472656 666.84375 L 419.726562 658.871094 C 421.515625 654.488281 422.894531 650.738281 422.785156 650.539062 C 422.679688 650.339844 418.710938 648.496094 413.96875 646.441406 C 392.054688 636.949219 365.007812 623.234375 348.65625 613.324219 C 319.71875 595.785156 301.234375 575.089844 288.90625 546.421875 C 285.328125 538.109375 283.800781 535.144531 283.140625 535.25 C 281.546875 535.511719 262.628906 533.488281 254.789062 532.21875 C 222.222656 526.9375 190.742188 516.042969 172.96875 503.898438 L 168.058594 500.539062 L 168.335938 502.851562 C 169.238281 510.359375 170.621094 514.175781 177.035156 526.855469 C 180.667969 534.039062 184.734375 541.304688 186.070312 542.996094 M 244.21875 578.578125 C 248.789062 582.988281 252.457031 584.929688 260.417969 587.136719 C 269.890625 589.765625 281.117188 590.078125 285.390625 587.832031 C 288.84375 586.015625 288.96875 584.527344 286.535156 574.238281 C 284.292969 564.757812 281.089844 558.957031 275.144531 553.605469 C 267.46875 546.699219 255.609375 545.546875 246.746094 550.855469 C 241.042969 554.269531 238.558594 557.910156 238.160156 563.433594 C 237.800781 568.464844 240.355469 574.847656 244.21875 578.578125 M 254.082031 570.78125 C 257.238281 573.308594 261.84375 574.84375 268.359375 575.542969 C 274.320312 576.183594 274.429688 576.164062 274.070312 574.421875 C 272.648438 567.558594 266.164062 561.039062 260.085938 560.363281 C 256.222656 559.9375 251.21875 561.59375 250.394531 563.570312 C 249.6875 565.269531 251.414062 568.648438 254.082031 570.78125 M 425.429688 690.421875 C 428.78125 691.285156 430.996094 687.941406 435.183594 675.699219 C 437.261719 669.613281 440.554688 661.550781 442.5 657.773438 C 447.441406 648.179688 449.242188 642.492188 447.921875 640.667969 C 446.574219 638.808594 442.785156 638.671875 440.910156 640.414062 C 439.578125 641.644531 426.101562 672.417969 423.601562 679.921875 C 422.410156 683.507812 422.140625 687.382812 422.976562 688.972656 C 423.253906 689.496094 424.355469 690.148438 425.429688 690.421875 M 449.738281 678.996094 C 456.921875 682.285156 505.613281 703.425781 508.933594 704.699219 L 512.558594 706.085938 L 513.464844 702.890625 C 513.960938 701.132812 515.332031 698.175781 516.507812 696.316406 C 517.6875 694.457031 518.71875 692.792969 518.800781 692.621094 C 518.886719 692.445312 511.371094 688.960938 502.105469 684.875 C 492.839844 680.792969 480.632812 675.355469 474.976562 672.800781 C 469.324219 670.242188 461.882812 667.167969 458.441406 665.964844 L 452.1875 663.777344 L 449.863281 669.511719 C 448.585938 672.667969 447.335938 675.773438 447.089844 676.414062 C 446.746094 677.3125 447.359375 677.910156 449.738281 678.996094 M 529.84375 720.914062 C 534.371094 722.324219 539.449219 718.375 542.140625 711.351562 C 543.808594 707.003906 543.855469 705.28125 542.457031 699.898438 C 541.433594 695.953125 541.234375 695.660156 539.09375 694.917969 C 533.988281 693.15625 528.980469 696.097656 526.335938 702.410156 C 522.820312 710.800781 524.414062 719.230469 529.84375 720.914062 " fill-opacity="1" fill-rule="evenodd"/></g></g></g></g></g></g></g></g><g clip-path="url(#73ad268a4f)"><g clip-path="url(#0a1867e4cb)"><g clip-path="url(#fbb55b2e2d)"><g clip-path="url(#1ca1847048)"><path fill="#000000" d="M 817.503906 692.832031 C 815.894531 693.433594 814.085938 693.847656 813.488281 693.746094 C 812.886719 693.644531 812.195312 693.90625 811.945312 694.328125 C 811.695312 694.753906 810.945312 699.457031 810.277344 704.777344 C 809.609375 710.101562 808.671875 716.726562 808.195312 719.503906 L 807.324219 724.550781 L 805.253906 724.585938 C 802.003906 724.644531 795.871094 729.003906 793.546875 732.902344 C 790.113281 738.664062 790.15625 742.796875 793.691406 747.058594 L 795.410156 749.132812 L 778.015625 761.195312 C 760.460938 773.363281 753.578125 777.21875 743.152344 780.714844 C 735.917969 783.136719 725.035156 785.613281 716.535156 786.769531 C 706.824219 788.089844 700.605469 790.15625 695.878906 793.632812 C 692.027344 796.464844 691.875 796.6875 691.21875 800.402344 C 690.445312 804.769531 691.269531 808.984375 693.46875 811.890625 C 694.40625 813.132812 694.800781 814.527344 694.585938 815.847656 C 693.796875 820.710938 696.90625 828.511719 700.179688 829.878906 C 701.714844 830.519531 702.039062 831.023438 701.789062 832.390625 C 701.355469 834.796875 705.578125 840.464844 709.027344 842.097656 C 712.046875 843.527344 716.269531 843.8125 718.582031 842.75 C 721.007812 841.628906 721.53125 842.035156 722.464844 845.769531 C 723.496094 849.878906 724.195312 850.851562 728.550781 854.226562 C 731.550781 856.550781 732.425781 856.878906 738.457031 857.933594 C 749.941406 859.945312 762.496094 858.09375 790.015625 850.328125 C 816.292969 842.917969 817.378906 842.878906 846.511719 848.410156 C 864.816406 851.882812 869.535156 852.585938 872.929688 852.34375 C 886.105469 851.398438 894.644531 843.917969 898.507812 829.9375 C 901.058594 820.695312 900.613281 814.988281 895.4375 790.582031 C 893.914062 783.40625 892.574219 775.417969 892.460938 772.828125 L 892.25 768.121094 L 895.722656 765.917969 C 899.964844 763.226562 901.359375 760.675781 902.21875 754.054688 C 902.761719 749.839844 902.644531 748.632812 901.457031 746.3125 C 899.867188 743.199219 897.382812 741.03125 894.894531 740.578125 C 893.25 740.28125 893.226562 740.164062 894.054688 735.820312 C 894.519531 733.371094 896.082031 727.816406 897.523438 723.480469 L 900.140625 715.59375 L 891.363281 714.003906 L 887.601562 726.121094 C 885.535156 732.785156 883.492188 738.820312 883.066406 739.539062 C 881.609375 741.980469 868.058594 741.738281 849.425781 738.9375 C 836.554688 737.003906 825.972656 734.144531 819.128906 730.75 L 816.347656 729.367188 L 817.65625 719.394531 C 818.375 713.910156 819.492188 705.449219 820.140625 700.589844 C 820.785156 695.734375 821.113281 691.753906 820.875 691.746094 C 820.632812 691.738281 819.117188 692.226562 817.503906 692.832031 M 886.597656 748.265625 C 884.996094 749.953125 883.949219 754.871094 884.699219 757.191406 C 885.601562 759.984375 890.785156 761.957031 892.234375 760.0625 C 892.675781 759.484375 893.46875 757.664062 893.996094 756.011719 C 895.320312 751.855469 893.847656 748.332031 890.398438 747.40625 C 888.441406 746.878906 887.765625 747.03125 886.597656 748.265625 M 804.035156 733.613281 C 802.398438 734.871094 799.648438 740.050781 799.902344 741.386719 C 800.15625 742.738281 802.726562 744.363281 805.347656 744.839844 C 808.054688 745.328125 809.996094 743.714844 810.582031 740.480469 C 811.566406 735.035156 807.597656 730.871094 804.035156 733.613281 M 865.273438 749.636719 C 862.582031 751.066406 861.46875 753.011719 861.746094 755.800781 C 862.054688 758.851562 863.882812 761.476562 866.367188 762.425781 C 870.121094 763.859375 873.820312 761.390625 874.632812 756.914062 C 874.992188 754.925781 874.695312 753.9375 873.101562 751.84375 C 870.765625 748.769531 868.253906 748.058594 865.273438 749.636719 M 822.855469 741.71875 C 821.503906 742.273438 819.960938 745.222656 819.398438 748.332031 C 818.875 751.222656 819.957031 753.550781 822.496094 755.003906 C 824.796875 756.320312 830.867188 752.835938 831.398438 749.894531 C 831.769531 747.855469 830.359375 744.109375 828.824219 743.042969 C 827.097656 741.84375 824.152344 741.191406 822.855469 741.71875 M 844.703125 748.058594 C 843.710938 748.34375 842.15625 749.589844 841.246094 750.828125 C 839.851562 752.71875 839.644531 753.46875 839.933594 755.523438 C 840.53125 759.789062 844.324219 762.699219 847.234375 761.128906 C 849.96875 759.648438 851.855469 753.859375 850.761719 750.300781 C 850.035156 747.929688 847.886719 747.132812 844.703125 748.058594 M 878.269531 765.96875 C 875.898438 768.605469 871.15625 770.921875 868.09375 770.941406 C 865.089844 770.960938 860.460938 768.707031 858.402344 766.226562 L 856.792969 764.285156 L 854.136719 766.242188 C 852.675781 767.320312 850.328125 768.453125 848.917969 768.765625 C 843.308594 770 835.679688 766.972656 833.359375 762.589844 L 832.285156 760.566406 L 829.167969 761.511719 C 827.121094 762.132812 824.449219 762.261719 821.378906 761.886719 C 815.78125 761.203125 813.429688 759.472656 812.101562 755.070312 L 811.257812 752.273438 L 807.78125 752.351562 C 804.546875 752.425781 803.832031 752.804688 797.613281 757.738281 C 789.746094 763.976562 771.480469 776.464844 764.441406 780.417969 C 751.773438 787.53125 730.582031 794.410156 713.992188 796.796875 C 704.683594 798.132812 701.136719 800.234375 700.441406 804.828125 C 699.78125 809.171875 701.457031 809.3125 709.335938 805.570312 C 713.761719 803.464844 722.925781 800.960938 725.964844 801.027344 C 728.765625 801.085938 730.910156 803.503906 730.445312 806.074219 C 730.058594 808.214844 725.691406 811 720.871094 812.179688 C 704.820312 816.105469 704.003906 816.402344 703.644531 818.386719 C 703.15625 821.078125 704.132812 822.066406 707.941406 822.742188 C 712.691406 823.578125 716.007812 822.449219 724.261719 817.171875 C 734.25 810.789062 738.648438 809.789062 741.6875 813.21875 C 745.050781 817.011719 742.222656 819.441406 728.457031 824.589844 C 723.425781 826.472656 717.914062 828.480469 716.214844 829.050781 C 714.519531 829.621094 713.070312 830.417969 712.996094 830.816406 C 712.789062 831.964844 716.089844 834.46875 718.34375 834.878906 C 719.96875 835.171875 721.609375 834.476562 726.210938 831.535156 C 730.839844 828.578125 733.746094 827.347656 740.4375 825.511719 C 750.5625 822.730469 752.675781 822.640625 754.257812 824.921875 C 757.261719 829.253906 753.773438 831.625 740.722656 834.113281 C 731.316406 835.90625 729.4375 837.582031 731.332031 842.488281 C 732.996094 846.796875 737.785156 849.257812 744.25 849.128906 C 757.082031 848.871094 772.273438 846.058594 793.46875 840.015625 C 814.011719 834.15625 821.488281 833.878906 840.617188 838.269531 C 858.507812 842.378906 869.894531 844.035156 874.496094 843.203125 C 879.53125 842.292969 884.265625 838.972656 887.140625 834.328125 C 888.980469 831.355469 889.597656 829.511719 890.546875 824.089844 C 891.921875 816.277344 891.492188 812.324219 887.53125 796.285156 C 884.773438 785.117188 883.59375 777.550781 883.535156 770.742188 C 883.507812 767.128906 883.234375 766.230469 881.832031 765.152344 C 880.210938 763.902344 880.109375 763.925781 878.269531 765.96875 M 941.550781 949.933594 C 940 950.867188 939.609375 951.359375 940.3125 951.503906 C 941.808594 951.804688 944.097656 950.527344 943.945312 949.476562 C 943.855469 948.839844 943.136719 948.976562 941.550781 949.933594 " fill-opacity="1" fill-rule="evenodd"/></g></g></g></g></svg>