<svg xmlns="http://www.w3.org/2000/svg" xmlns:xlink="http://www.w3.org/1999/xlink" width="2000" zoomAndPan="magnify" viewBox="0 0 1500 1499.999933" height="2000" preserveAspectRatio="xMidYMid meet" version="1.0"><defs><g/><clipPath id="91d6ccd5cf"><path d="M 0 199.324219 L 1500 199.324219 L 1500 1489.324219 L 0 1489.324219 Z M 0 199.324219 " clip-rule="nonzero"/></clipPath><clipPath id="befb9ff52f"><rect x="0" width="1087" y="0" height="293"/></clipPath><clipPath id="f875b7f314"><path d="M 530 366 L 951 366 L 951 840 L 530 840 Z M 530 366 " clip-rule="nonzero"/></clipPath><clipPath id="8e9644d5e3"><path d="M 1085.085938 -49.664062 L 1452.335938 648.65625 L 754.015625 1015.90625 L 386.765625 317.585938 Z M 1085.085938 -49.664062 " clip-rule="nonzero"/></clipPath><clipPath id="52c56e9e37"><path d="M 11 116 L 411 116 L 411 366 L 11 366 Z M 11 116 " clip-rule="nonzero"/></clipPath><clipPath id="4dff741e08"><path d="M 555.085938 -415.664062 L 922.335938 282.65625 L 224.015625 649.90625 L -143.234375 -48.414062 Z M 555.085938 -415.664062 " clip-rule="nonzero"/></clipPath><clipPath id="c0ea344bc9"><path d="M 223.898438 650.285156 L -143.351562 -48.035156 L 554.96875 -415.28125 L 922.214844 283.035156 Z M 223.898438 650.285156 " clip-rule="nonzero"/></clipPath><clipPath id="bcd5b131c7"><rect x="0" width="421" y="0" height="474"/></clipPath><clipPath id="cb4bb70ca5"><path d="M 690 691 L 945 691 L 945 952 L 690 952 Z M 690 691 " clip-rule="nonzero"/></clipPath><clipPath id="4056e3fc9a"><path d="M 539.660156 446.222656 L 1216.398438 568.785156 L 1093.835938 1245.527344 L 417.097656 1122.964844 Z M 539.660156 446.222656 " clip-rule="nonzero"/></clipPath><clipPath id="ff0e9e21c2"><path d="M 539.660156 446.222656 L 1216.398438 568.785156 L 1093.835938 1245.527344 L 417.097656 1122.964844 Z M 539.660156 446.222656 " clip-rule="nonzero"/></clipPath></defs><path fill="#c80909" d="M 1490.804688 207.921875 L 9.882812 207.921875 L 750.171875 1480.722656 Z M 1490.804688 207.921875 " fill-opacity="1" fill-rule="nonzero"/><g clip-path="url(#91d6ccd5cf)"><path fill="#c80909" d="M 9.882812 199.324219 L 1490.804688 199.324219 C 1493.898438 199.324219 1496.652344 201.042969 1498.371094 203.796875 C 1499.746094 206.546875 1499.746094 209.644531 1498.371094 212.394531 L 757.738281 1485.195312 C 756.363281 1487.949219 753.269531 1489.324219 750.171875 1489.324219 C 747.074219 1489.324219 744.324219 1487.601562 742.605469 1485.195312 L 1.972656 212.394531 C 0.597656 209.644531 0.253906 206.546875 1.972656 203.796875 C 3.691406 201.042969 6.789062 199.324219 9.882812 199.324219 Z M 1476.011719 216.523438 L 24.675781 216.523438 L 750.171875 1463.523438 Z M 1476.011719 216.523438 " fill-opacity="1" fill-rule="nonzero"/></g><g transform="matrix(1, 0, 0, 1, 250, 222)"><g clip-path="url(#befb9ff52f)"><g fill="#ffffff" fill-opacity="1"><g transform="translate(1.2049, 215.47321)"><g><path d="M 20.5625 0 L 20.5625 -141.15625 L 37.109375 -141.15625 L 92.5625 -57.46875 L 147.609375 -141.15625 L 164.140625 -141.15625 L 164.140625 0 L 146.40625 0 L 146.40625 -107.890625 L 99.625 -37.515625 L 85.09375 -37.515625 L 38.3125 -108.09375 L 38.3125 0 Z M 20.5625 0 "/></g></g></g><g fill="#ffffff" fill-opacity="1"><g transform="translate(273.431362, 215.47321)"><g><path d="M 3.421875 0 L 61.5 -141.15625 L 78.046875 -141.15625 L 136.125 0 L 117.359375 0 L 104.046875 -32.0625 L 35.296875 -32.0625 L 22.390625 0 Z M 42.140625 -48.59375 L 97.40625 -48.59375 L 69.765625 -116.359375 Z M 42.140625 -48.59375 "/></g></g></g><g fill="#ffffff" fill-opacity="1"><g transform="translate(500.488387, 215.47321)"><g><path d="M 54.65625 0 L 54.65625 -124.21875 L 6.859375 -124.21875 L 6.859375 -141.15625 L 119.984375 -141.15625 L 119.984375 -124.21875 L 72.390625 -124.21875 L 72.390625 0 Z M 54.65625 0 "/></g></g></g><g fill="#ffffff" fill-opacity="1"><g transform="translate(715.04321, 215.47321)"><g><path d="M 20.5625 0 L 20.5625 -141.15625 L 74.40625 -141.15625 C 84.21875 -141.15625 92.753906 -139.304688 100.015625 -135.609375 C 107.273438 -131.910156 112.921875 -126.703125 116.953125 -119.984375 C 120.992188 -113.265625 123.015625 -105.195312 123.015625 -95.78125 C 123.015625 -84.351562 120.054688 -74.910156 114.140625 -67.453125 C 108.222656 -59.992188 100.085938 -54.988281 89.734375 -52.4375 L 125.234375 0 L 103.859375 0 L 69.375 -50.609375 L 38.3125 -50.609375 L 38.3125 0 Z M 38.3125 -67.5625 L 72.390625 -67.5625 C 82.742188 -67.5625 90.742188 -70.015625 96.390625 -74.921875 C 102.035156 -79.828125 104.859375 -86.78125 104.859375 -95.78125 C 104.859375 -104.789062 102.035156 -111.78125 96.390625 -116.75 C 90.742188 -121.726562 82.742188 -124.21875 72.390625 -124.21875 L 38.3125 -124.21875 Z M 38.3125 -67.5625 "/></g></g></g><g fill="#ffffff" fill-opacity="1"><g transform="translate(939.882136, 215.47321)"><g><path d="M 20.5625 0 L 20.5625 -141.15625 L 38.3125 -141.15625 L 38.3125 0 Z M 20.5625 0 "/></g></g></g></g></g><path fill="#ffffff" d="M 941.957031 742.582031 C 938.621094 744.617188 938.6875 747.085938 942.246094 752.980469 C 945.660156 758.632812 948.3125 764.355469 950.8125 771.457031 C 953.339844 778.628906 953.992188 790.773438 952.25 798.195312 C 944.6875 830.390625 911.050781 849.601562 862.242188 849.59375 C 846.589844 849.589844 832.089844 848.320312 821.773438 846.050781 C 811.28125 843.738281 796.222656 842.859375 788.1875 844.089844 C 785.222656 844.542969 778.988281 845.863281 774.328125 847.023438 C 767.160156 848.808594 764.265625 849.128906 755.46875 849.109375 C 746.523438 849.09375 743.539062 848.738281 734.042969 846.5625 C 723.25 844.09375 722.714844 844.046875 709.410156 844.429688 C 697.484375 844.773438 694.859375 845.089844 688.109375 847.015625 L 680.410156 849.210938 L 655.777344 849.210938 C 633.40625 849.210938 630.1875 849.042969 620.75 847.40625 C 608.011719 845.191406 593.789062 840.625 586.164062 836.292969 C 576.4375 830.765625 568.476562 821.871094 563.390625 810.851562 C 559.203125 801.78125 558.082031 796.488281 558.136719 786.085938 C 558.179688 778.1875 558.496094 775.894531 560.308594 770.304688 C 562.40625 763.824219 566.851562 754.363281 569.894531 749.902344 C 571.992188 746.832031 571.886719 745.332031 569.453125 743.414062 C 566.136719 740.804688 560.96875 741.226562 556.097656 744.503906 C 546.832031 750.742188 538.585938 759.34375 530.726562 770.980469 C 523.046875 782.34375 518.359375 796.488281 516.914062 812.644531 C 515.503906 828.375 518.757812 845.859375 525.628906 859.507812 C 529.066406 866.332031 536.425781 876.066406 542.035156 881.210938 C 553.839844 892.039062 577.4375 903.617188 598.425781 908.886719 C 600.332031 909.367188 603.753906 910.289062 606.03125 910.9375 L 610.171875 912.117188 L 602.183594 914.707031 C 597.785156 916.128906 590.035156 919.394531 584.953125 921.960938 C 575.847656 926.558594 538.0625 951.304688 536.597656 953.628906 C 534.484375 956.976562 538.578125 961.148438 550.0625 967.34375 C 571.5625 978.9375 598.839844 981.539062 619.671875 973.976562 C 627.058594 971.292969 635.796875 965.976562 641.542969 960.664062 L 646.71875 955.875 L 647.128906 969.902344 C 647.855469 994.824219 651.5 1003.4375 669.429688 1022.589844 C 681.054688 1035.003906 683.757812 1040.808594 686.558594 1059.394531 C 687.902344 1068.316406 687.996094 1071.707031 687.011719 1076.160156 C 686.617188 1077.933594 685.875 1082.886719 685.359375 1087.167969 C 683.582031 1101.964844 687.035156 1109.664062 702.089844 1124.449219 C 707.3125 1129.582031 711.589844 1134.058594 711.589844 1134.402344 C 711.589844 1135.492188 721.832031 1143.40625 725.863281 1145.429688 C 734.238281 1149.636719 737.628906 1150.191406 755.082031 1150.199219 C 769.847656 1150.210938 771.75 1150.054688 777.023438 1148.421875 C 784.546875 1146.089844 791.921875 1141.699219 796.683594 1136.714844 C 798.785156 1134.515625 804.496094 1128.683594 809.375 1123.757812 C 819.386719 1113.652344 822.417969 1108.675781 824.4375 1099.015625 C 825.734375 1092.828125 825.507812 1088.519531 823.5 1081.246094 C 822.496094 1077.621094 822.4375 1075.273438 823.113281 1066.199219 C 824.570312 1046.5625 829.429688 1035.414062 842.628906 1021.402344 C 852.554688 1010.863281 856.152344 1005.683594 859.433594 997.199219 C 862.875 988.296875 863.957031 981.171875 863.988281 967.15625 L 864.011719 955.007812 L 867.671875 958.542969 C 875.351562 965.96875 885.898438 971.800781 898.4375 975.550781 C 903.851562 977.171875 907.347656 977.648438 915.992188 977.957031 C 931.96875 978.523438 941.035156 976.183594 961.558594 966.199219 C 971.90625 961.167969 974.097656 959.25 974.097656 955.234375 C 974.097656 953.003906 972 951.433594 951.773438 938.519531 C 931.894531 925.832031 921.082031 920.050781 908.074219 915.160156 L 900.171875 912.191406 L 906.917969 910.492188 C 935.703125 903.246094 957.960938 892.066406 971.152344 878.230469 C 983.027344 865.777344 990.773438 850.628906 994.179688 833.210938 C 996.058594 823.597656 996.042969 815.847656 994.121094 804.601562 C 991.53125 789.453125 987.289062 779.042969 979.472656 768.640625 C 975.003906 762.695312 962.429688 750.515625 954.992188 744.929688 C 949.167969 740.554688 946.167969 740.015625 941.957031 742.582031 M 546.675781 765.875 C 540.355469 773.203125 538.042969 776.382812 535 781.925781 C 528.679688 793.429688 525.601562 806.875 526.359375 819.664062 C 528.792969 860.613281 549.242188 884.273438 593.820312 897.730469 C 605.164062 901.152344 631.882812 906.464844 632.859375 905.488281 C 633.050781 905.292969 633.867188 901.214844 634.671875 896.417969 C 636.664062 884.558594 639.152344 876.90625 644.210938 867.109375 L 648.480469 858.832031 L 642.867188 858.832031 C 635.800781 858.832031 620.226562 856.925781 611.144531 854.945312 C 601.898438 852.933594 595.65625 850.832031 587.035156 846.832031 C 567.546875 837.785156 557.660156 826.839844 550.53125 806.421875 C 548.042969 799.289062 548 798.949219 548.003906 785.699219 C 548.007812 773.195312 548.148438 771.828125 549.984375 766.644531 C 551.074219 763.578125 551.707031 761.066406 551.394531 761.066406 C 551.082031 761.066406 548.957031 763.230469 546.675781 765.875 M 958.703125 761.191406 C 958.703125 761.4375 959.246094 763.15625 959.910156 765.007812 C 962.128906 771.183594 964.054688 781.402344 964.074219 787.078125 C 964.132812 806.851562 952.777344 827.628906 935.625 839.136719 C 929.4375 843.289062 916.746094 849.484375 909.433594 851.929688 C 901.636719 854.53125 887.046875 857.152344 874.585938 858.195312 C 868.332031 858.714844 863.3125 859.332031 863.429688 859.5625 C 872.367188 877.445312 875.605469 886.664062 877.285156 899.007812 L 878.207031 905.757812 L 881.308594 905.320312 C 911.253906 901.105469 932.914062 893.917969 950.816406 882.25 C 971.417969 868.824219 983.320312 847.539062 984.644531 821.746094 C 985.539062 804.277344 981.632812 791.132812 970.605469 774.535156 C 967.097656 769.253906 958.703125 759.839844 958.703125 761.191406 M 703.640625 853.488281 C 694.128906 854.59375 692.351562 855.097656 688.285156 857.839844 C 681.285156 862.566406 676.328125 867.996094 673.050781 874.523438 C 667.835938 884.914062 663.859375 900.917969 663.859375 911.515625 C 663.859375 915.324219 663.492188 916.769531 662.015625 918.773438 C 659.828125 921.734375 658.789062 927.070312 657.691406 940.9375 C 656.183594 960.039062 656.882812 980.769531 659.351562 990.066406 C 660.4375 994.167969 664.277344 1001.691406 667.214844 1005.484375 C 668.523438 1007.175781 672.394531 1011.507812 675.816406 1015.105469 C 679.238281 1018.703125 683.179688 1023.320312 684.574219 1025.367188 C 690.425781 1033.9375 695.535156 1048.171875 696.707031 1059.179688 L 697.183594 1063.609375 L 700.945312 1060.089844 C 705.496094 1055.832031 711.070312 1053.175781 717.65625 1052.125 C 720.359375 1051.695312 722.773438 1051.136719 723.019531 1050.890625 C 723.269531 1050.640625 724.074219 1045.347656 724.8125 1039.125 C 728.078125 1011.496094 725.042969 972.027344 718.546875 957.703125 C 713.503906 946.574219 699.359375 936.050781 685.472656 933.097656 C 679.144531 931.75 676.210938 929.195312 677.566406 926.210938 C 679.386719 922.222656 684.632812 922.023438 695.007812 925.542969 C 708.65625 930.179688 721.824219 941.730469 728.453125 954.878906 C 731.074219 960.078125 733.726562 971.523438 734.824219 982.390625 C 736.199219 995.980469 736.03125 1035.488281 734.558594 1044.480469 L 733.46875 1051.148438 L 743.890625 1051.707031 C 753.773438 1052.234375 767.714844 1051.804688 774.226562 1050.765625 L 777.203125 1050.292969 L 776.699219 1046.75 C 775.3125 1037.003906 775.101562 1032.277344 775.128906 1011.640625 C 775.171875 979.097656 776.785156 966.550781 782.445312 954.675781 C 787.992188 943.046875 796.65625 934.484375 808.972656 928.464844 C 821.027344 922.570312 830.996094 921.335938 833.667969 925.40625 C 836.007812 928.976562 832.484375 932.261719 825.523438 933 C 818.785156 933.71875 807.125 939.914062 800.417969 946.347656 C 792.65625 953.792969 789.917969 959.921875 786.902344 976.613281 C 785.632812 983.664062 785.226562 989.828125 784.917969 1006.867188 C 784.570312 1026.242188 785.40625 1045.078125 786.769531 1048.640625 C 787.019531 1049.292969 788.234375 1049.75 789.71875 1049.75 C 793.457031 1049.75 803.71875 1055.222656 809.085938 1060.078125 L 813.78125 1064.332031 L 814.296875 1060.453125 C 815.5 1051.386719 819.277344 1039.007812 823.121094 1031.539062 C 826.160156 1025.625 828.722656 1022.097656 834.765625 1015.492188 C 849.90625 998.9375 852.257812 993.617188 854.003906 972.011719 C 854.574219 964.976562 854.566406 957.890625 853.976562 947.984375 C 853 931.566406 851.652344 922.941406 849.519531 919.457031 C 848.601562 917.953125 847.78125 914.800781 847.472656 911.566406 C 845.945312 895.652344 843.230469 884.878906 838.125 874.488281 C 835.058594 868.253906 830.632812 863.394531 823.953125 858.9375 C 819.039062 855.652344 815.273438 854.578125 804.351562 853.328125 C 796.203125 852.398438 793.6875 852.664062 777.546875 856.179688 C 761.574219 859.660156 750.148438 859.847656 736.417969 856.867188 C 717.203125 852.691406 713.640625 852.324219 703.640625 853.488281 M 665.210938 859.132812 C 659.503906 859.949219 659.164062 860.117188 657.210938 862.996094 C 653.367188 868.667969 646.785156 885.585938 644.648438 895.308594 C 644.265625 897.050781 643.859375 900.546875 643.75 903.074219 L 643.546875 907.671875 L 647.925781 908.546875 C 653.335938 909.632812 653.519531 909.449219 654.652344 901.898438 C 655.78125 894.40625 658.082031 885.304688 660.425781 879.078125 C 662.40625 873.820312 669.175781 862.03125 671.164062 860.378906 C 672.378906 859.371094 672.75 857.984375 671.75 858.171875 C 671.433594 858.230469 668.492188 858.664062 665.210938 859.132812 M 839.378906 859.441406 C 839.378906 859.566406 840.726562 861.472656 842.371094 863.675781 C 849.535156 873.273438 853.804688 884.363281 856.285156 899.839844 C 857.097656 904.894531 857.890625 909.164062 858.046875 909.320312 C 858.203125 909.472656 860.472656 909.203125 863.097656 908.714844 L 867.863281 907.828125 L 867.863281 904.9375 C 867.863281 895.453125 860.546875 873.625 853.785156 862.933594 L 851.75 859.722656 L 845.5625 859.46875 C 842.160156 859.332031 839.375 859.320312 839.378906 859.441406 M 618.441406 920.042969 C 600.445312 924.234375 591.214844 928.664062 567.460938 944.53125 L 549.972656 956.214844 L 555.792969 959.148438 C 569.136719 965.867188 587.15625 970.257812 597.65625 969.347656 C 606.0625 968.621094 615.667969 966.167969 621.964844 963.140625 C 627.992188 960.238281 638.714844 951.027344 645.011719 943.339844 L 648.621094 938.929688 L 649.785156 929.25 C 650.425781 923.921875 650.707031 919.324219 650.414062 919.03125 C 650.121094 918.734375 644.625 918.417969 638.199219 918.328125 C 628.15625 918.1875 625.394531 918.425781 618.441406 920.042969 M 861.046875 918.792969 C 860.035156 919.433594 860.234375 922.535156 862.167969 936.292969 C 862.574219 939.179688 870.613281 948.582031 878.578125 955.496094 C 887.355469 963.109375 898.058594 967.476562 911.695312 969.015625 C 920.878906 970.054688 929.859375 968.6875 940.867188 964.574219 C 947.910156 961.945312 960.242188 956.171875 960.242188 955.503906 C 960.242188 955.335938 951.578125 949.945312 940.988281 943.523438 C 907.230469 923.058594 893.980469 918.148438 872.480469 918.136719 C 866.765625 918.132812 861.621094 918.429688 861.046875 918.792969 M 674.210938 956.171875 C 673.363281 960.691406 678.335938 972.988281 683.289062 978.632812 C 688.347656 984.394531 697.605469 986.660156 704.621094 983.855469 C 707.558594 982.679688 707.785156 982.695312 709.761719 984.253906 C 711.566406 985.671875 712.03125 985.746094 713.398438 984.839844 C 716.460938 982.808594 716.59375 981.667969 714.175781 978.179688 C 712.273438 975.4375 710.878906 974.488281 705.578125 972.351562 L 699.246094 969.796875 L 700.820312 971.800781 C 702.660156 974.136719 701.886719 975.042969 698.039062 975.0625 C 694.421875 975.082031 690.703125 972.140625 688.109375 967.207031 C 686.824219 964.769531 684.433594 961.761719 682.71875 960.441406 C 681.027344 959.132812 679.289062 957.644531 678.859375 957.136719 C 678.429688 956.628906 677.324219 955.574219 676.40625 954.792969 C 674.742188 953.378906 674.734375 953.382812 674.210938 956.171875 M 832.835938 957.058594 C 831.140625 957.632812 828.820312 958.289062 827.675781 958.511719 C 826.53125 958.738281 824.625 959.816406 823.441406 960.90625 C 822.058594 962.179688 821.773438 962.738281 822.636719 962.464844 C 824.335938 961.925781 824.382812 963.394531 822.789062 967.210938 C 820.371094 972.992188 814.972656 976.523438 810.167969 975.46875 C 808.464844 975.09375 808.027344 974.65625 808.394531 973.695312 C 808.765625 972.722656 808.34375 972.839844 806.617188 974.179688 C 805.371094 975.144531 803.296875 976.601562 802.007812 977.414062 C 800.71875 978.226562 798.859375 979.980469 797.875 981.308594 C 796.429688 983.265625 796.289062 983.851562 797.140625 984.394531 C 798.589844 985.3125 801.183594 985.25 802.160156 984.269531 C 802.730469 983.703125 804.484375 983.722656 808.023438 984.339844 C 822.097656 986.789062 831.257812 979.183594 835.925781 961.179688 C 837.53125 954.980469 837.820312 955.367188 832.835938 957.058594 M 767.402344 1061.375 C 764.4375 1061.722656 753.332031 1061.796875 742.722656 1061.542969 C 720.1875 1061.003906 715.925781 1061.371094 711.691406 1064.230469 C 707.625 1066.976562 699.574219 1076.175781 697.269531 1080.707031 C 695.710938 1083.773438 695.421875 1085.460938 695.421875 1091.554688 C 695.421875 1098.09375 695.648438 1099.222656 697.824219 1103.578125 C 700.714844 1109.363281 709.128906 1118.078125 714.1875 1120.523438 C 718.171875 1122.453125 717.542969 1122.460938 745.460938 1120.246094 C 762.703125 1118.878906 778.992188 1119.332031 789.359375 1121.472656 C 795.03125 1122.640625 797.671875 1121.359375 804.574219 1114.097656 C 810.28125 1108.085938 812.476562 1104.261719 814.328125 1097.121094 C 817.179688 1086.105469 814.484375 1077.207031 805.769531 1068.851562 C 798.28125 1061.675781 785.738281 1059.230469 767.402344 1061.375 M 787.324219 1080.351562 C 786 1081.515625 781.777344 1085.96875 777.941406 1090.246094 L 770.960938 1098.027344 L 772.796875 1100.734375 C 774.742188 1103.59375 779.363281 1105.949219 783.003906 1105.9375 C 786.878906 1105.921875 792.921875 1102.46875 795.257812 1098.9375 C 797.128906 1096.101562 797.425781 1094.90625 797.425781 1090.09375 C 797.425781 1085.023438 797.214844 1084.273438 795.035156 1081.574219 C 792.078125 1077.910156 790.402344 1077.644531 787.324219 1080.351562 M 716.832031 1081.117188 C 713.878906 1084.28125 713.128906 1086.191406 713.128906 1090.527344 C 713.128906 1106.246094 735.144531 1112.140625 739.652344 1097.628906 C 740.105469 1096.160156 739.574219 1095.308594 736.546875 1092.625 C 730.535156 1087.308594 730.347656 1087.226562 730.671875 1090.042969 C 731.0625 1093.453125 729.671875 1096.707031 727.816406 1096.707031 C 725.820312 1096.707031 723.90625 1093.875 723.90625 1090.914062 C 723.90625 1088.078125 725.105469 1086.699219 727.574219 1086.699219 C 729.207031 1086.699219 728.984375 1086.296875 725.445312 1082.851562 C 723.273438 1080.734375 720.890625 1079 720.148438 1079 C 719.410156 1079 717.917969 1079.953125 716.832031 1081.117188 M 782.46875 1088.726562 C 780.871094 1090.757812 780.464844 1093.203125 781.339844 1095.488281 C 782.5 1098.515625 787.800781 1094.859375 787.800781 1091.03125 C 787.800781 1086.5625 785.09375 1085.390625 782.46875 1088.726562 M 755.300781 1128.691406 C 755.070312 1128.925781 749.554688 1129.441406 743.046875 1129.835938 C 736.542969 1130.230469 729.5 1130.773438 727.402344 1131.042969 L 723.585938 1131.539062 L 725.476562 1133.066406 C 729.097656 1136 736.429688 1139.160156 742.148438 1140.253906 C 754.089844 1142.539062 772.121094 1141.183594 779.457031 1137.445312 C 783.230469 1135.523438 787.800781 1132.210938 787.800781 1131.394531 C 787.800781 1131.097656 785.984375 1130.777344 783.757812 1130.679688 C 781.535156 1130.582031 776.601562 1130.003906 772.789062 1129.390625 C 765.882812 1128.277344 756.105469 1127.890625 755.300781 1128.691406 " fill-opacity="1" fill-rule="evenodd"/><g clip-path="url(#f875b7f314)"><g clip-path="url(#8e9644d5e3)"><g transform="matrix(1, 0, 0, 1, 530, 366)"><g clip-path="url(#bcd5b131c7)"><g clip-path="url(#52c56e9e37)"><g clip-path="url(#4dff741e08)"><g clip-path="url(#c0ea344bc9)"><path fill="#ffffff" d="M 29.851562 177.558594 C 37.296875 189.636719 45.527344 199.375 59.152344 212.226562 C 83.566406 235.257812 102.625 245.585938 160.992188 267.421875 C 172.636719 271.777344 201.628906 283.179688 225.421875 292.757812 L 268.679688 310.171875 L 267.855469 313.21875 C 266.613281 317.820312 266.871094 320.21875 269.0625 324.386719 C 272.492188 330.910156 280.789062 335.304688 287.078125 333.933594 C 290.496094 333.1875 294.378906 329.578125 296.371094 325.292969 C 297.132812 323.652344 298.019531 322.207031 298.34375 322.074219 C 298.664062 321.945312 306.480469 325.179688 315.710938 329.269531 C 334.390625 337.539062 346.871094 342.621094 360.363281 347.453125 C 367.992188 350.183594 369.589844 351.050781 370.621094 353.003906 C 372.28125 356.164062 377.226562 361.167969 381.101562 363.609375 C 385.988281 366.695312 390.125 366.355469 396.800781 362.320312 C 403.28125 358.40625 406.167969 354.949219 408.707031 348.0625 C 411.21875 341.257812 411.023438 333.625 408.171875 327.117188 C 404.929688 319.710938 401.097656 317.59375 391.886719 318.121094 C 385.992188 318.457031 381.882812 317.125 363.609375 308.957031 C 356.75 305.890625 344.148438 300.59375 335.601562 297.183594 C 327.058594 293.773438 318.210938 290.21875 315.9375 289.285156 L 311.808594 287.585938 L 312.894531 283.917969 C 316.289062 272.476562 309.402344 263.523438 297.324219 263.675781 C 291.976562 263.738281 288.367188 265.695312 285.101562 270.296875 L 282.503906 273.953125 L 278.667969 272.5 C 263.582031 266.785156 228.902344 249.398438 210.613281 238.382812 C 183.871094 222.273438 168.667969 206.128906 158.367188 182.894531 C 155.917969 177.367188 153.398438 170.757812 152.773438 168.214844 C 150.371094 158.453125 150.09375 158.300781 132.503906 156.90625 C 118.695312 155.8125 98.953125 152.589844 87.15625 149.507812 C 76.601562 146.75 58.078125 140.171875 49.621094 136.175781 C 43.597656 133.332031 21.988281 118.976562 21.054688 117.199219 C 20.457031 116.070312 17.683594 116.027344 15.605469 117.121094 C 11.3125 119.378906 10.136719 130.441406 12.867188 142.929688 C 13.972656 147.992188 15.070312 150.496094 21.085938 161.683594 C 24.90625 168.785156 28.851562 175.929688 29.851562 177.558594 M 42.003906 176.828125 C 50.839844 188.03125 53.441406 191.085938 59.40625 197.285156 C 67.320312 205.511719 77.738281 214.667969 85.476562 220.199219 C 98.988281 229.863281 121.945312 240.925781 152.886719 252.691406 C 161.835938 256.09375 171.421875 259.839844 174.191406 261.019531 C 176.960938 262.195312 187.144531 266.246094 196.824219 270.015625 C 223.308594 280.335938 252.160156 291.925781 259.722656 295.289062 C 263.425781 296.933594 267.8125 298.828125 269.472656 299.5 L 272.492188 300.71875 L 275.746094 292.746094 C 277.535156 288.359375 278.914062 284.609375 278.804688 284.410156 C 278.699219 284.210938 274.730469 282.367188 269.988281 280.308594 C 248.0625 270.8125 221.007812 257.09375 204.648438 247.179688 C 175.703125 229.636719 157.210938 208.933594 144.878906 180.253906 C 141.300781 171.9375 139.769531 168.972656 139.109375 169.078125 C 137.515625 169.339844 118.589844 167.316406 110.75 166.046875 C 78.171875 160.765625 46.679688 149.863281 28.902344 137.714844 L 23.984375 134.355469 L 24.265625 136.667969 C 25.167969 144.179688 26.550781 148 32.964844 160.679688 C 36.601562 167.867188 40.667969 175.136719 42.003906 176.828125 M 100.175781 212.421875 C 104.746094 216.835938 108.417969 218.773438 116.382812 220.984375 C 125.855469 223.613281 137.085938 223.925781 141.363281 221.675781 C 144.8125 219.863281 144.9375 218.371094 142.503906 208.078125 C 140.261719 198.597656 137.058594 192.792969 131.113281 187.441406 C 123.433594 180.53125 111.566406 179.378906 102.703125 184.6875 C 96.996094 188.101562 94.511719 191.746094 94.117188 197.273438 C 93.753906 202.304688 96.308594 208.691406 100.175781 212.421875 M 110.039062 204.621094 C 113.199219 207.148438 117.804688 208.6875 124.324219 209.386719 C 130.289062 210.027344 130.398438 210.007812 130.035156 208.265625 C 128.617188 201.398438 122.128906 194.875 116.046875 194.203125 C 112.179688 193.773438 107.175781 195.429688 106.351562 197.410156 C 105.644531 199.109375 107.375 202.488281 110.039062 204.621094 M 281.449219 324.308594 C 284.804688 325.167969 287.019531 321.824219 291.207031 309.578125 C 293.289062 303.492188 296.582031 295.421875 298.527344 291.644531 C 303.46875 282.050781 305.273438 276.359375 303.949219 274.535156 C 302.601562 272.675781 298.8125 272.535156 296.933594 274.277344 C 295.605469 275.511719 282.121094 306.296875 279.621094 313.804688 C 278.429688 317.390625 278.160156 321.265625 279 322.855469 C 279.273438 323.378906 280.375 324.03125 281.449219 324.308594 M 305.765625 312.878906 C 312.953125 316.167969 361.660156 337.3125 364.984375 338.585938 L 368.609375 339.976562 L 369.515625 336.78125 C 370.011719 335.019531 371.382812 332.0625 372.5625 330.203125 C 373.738281 328.34375 374.773438 326.679688 374.855469 326.503906 C 374.9375 326.332031 367.421875 322.84375 358.152344 318.757812 C 348.882812 314.671875 336.671875 309.234375 331.015625 306.675781 C 325.359375 304.121094 317.917969 301.042969 314.476562 299.839844 L 308.21875 297.652344 L 305.890625 303.390625 C 304.613281 306.546875 303.363281 309.652344 303.117188 310.292969 C 302.773438 311.191406 303.386719 311.789062 305.765625 312.878906 M 385.898438 354.808594 C 390.429688 356.21875 395.511719 352.265625 398.203125 345.242188 C 399.871094 340.894531 399.917969 339.167969 398.519531 333.785156 C 397.496094 329.839844 397.296875 329.542969 395.15625 328.804688 C 390.050781 327.042969 385.039062 329.984375 382.394531 336.296875 C 378.875 344.691406 380.46875 353.125 385.898438 354.808594 " fill-opacity="1" fill-rule="evenodd"/></g></g></g></g></g></g></g><g clip-path="url(#cb4bb70ca5)"><g clip-path="url(#4056e3fc9a)"><g clip-path="url(#ff0e9e21c2)"><path fill="#ffffff" d="M 817.59375 692.910156 C 815.984375 693.515625 814.175781 693.925781 813.574219 693.824219 C 812.976562 693.722656 812.28125 693.984375 812.035156 694.410156 C 811.785156 694.835938 811.03125 699.539062 810.363281 704.863281 C 809.695312 710.1875 808.757812 716.8125 808.28125 719.589844 L 807.410156 724.640625 L 805.339844 724.675781 C 802.085938 724.734375 795.953125 729.09375 793.628906 732.996094 C 790.195312 738.757812 790.238281 742.890625 793.773438 747.15625 L 795.492188 749.230469 L 778.09375 761.296875 C 760.535156 773.46875 753.648438 777.328125 743.21875 780.820312 C 735.984375 783.246094 725.097656 785.722656 716.59375 786.878906 C 706.878906 788.199219 700.660156 790.269531 695.929688 793.746094 C 692.078125 796.578125 691.925781 796.800781 691.265625 800.519531 C 690.492188 804.882812 691.316406 809.101562 693.519531 812.011719 C 694.457031 813.253906 694.851562 814.648438 694.636719 815.96875 C 693.847656 820.832031 696.957031 828.636719 700.234375 830.003906 C 701.765625 830.644531 702.089844 831.148438 701.84375 832.515625 C 701.40625 834.925781 705.632812 840.589844 709.082031 842.222656 C 712.101562 843.65625 716.324219 843.941406 718.640625 842.875 C 721.066406 841.757812 721.589844 842.164062 722.523438 845.898438 C 723.554688 850.011719 724.253906 850.984375 728.613281 854.359375 C 731.613281 856.683594 732.488281 857.011719 738.523438 858.066406 C 750.011719 860.078125 762.570312 858.226562 790.097656 850.460938 C 816.382812 843.042969 817.46875 843.007812 846.609375 848.539062 C 864.921875 852.015625 869.644531 852.71875 873.035156 852.476562 C 886.21875 851.53125 894.761719 844.046875 898.625 830.0625 C 901.175781 820.816406 900.730469 815.109375 895.554688 790.695312 C 894.03125 783.515625 892.691406 775.523438 892.574219 772.933594 L 892.367188 768.226562 L 895.839844 766.019531 C 900.082031 763.328125 901.476562 760.777344 902.335938 754.152344 C 902.878906 749.9375 902.761719 748.730469 901.574219 746.410156 C 899.984375 743.296875 897.496094 741.125 895.007812 740.675781 C 893.363281 740.375 893.34375 740.257812 894.171875 735.914062 C 894.636719 733.464844 896.195312 727.910156 897.636719 723.570312 L 900.257812 715.679688 L 891.476562 714.089844 L 887.714844 726.210938 C 885.644531 732.878906 883.605469 738.917969 883.175781 739.632812 C 881.722656 742.074219 868.167969 741.832031 849.523438 739.03125 C 836.652344 737.097656 826.066406 734.238281 819.21875 730.839844 L 816.4375 729.460938 L 817.746094 719.484375 C 818.464844 713.996094 819.582031 705.53125 820.230469 700.675781 C 820.875 695.816406 821.207031 691.832031 820.964844 691.824219 C 820.722656 691.816406 819.207031 692.304688 817.59375 692.910156 M 886.707031 748.363281 C 885.105469 750.050781 884.0625 754.96875 884.8125 757.292969 C 885.710938 760.085938 890.898438 762.058594 892.347656 760.164062 C 892.789062 759.585938 893.582031 757.765625 894.109375 756.113281 C 895.433594 751.957031 893.960938 748.429688 890.511719 747.503906 C 888.554688 746.976562 887.878906 747.128906 886.707031 748.363281 M 804.121094 733.707031 C 802.484375 734.964844 799.734375 740.144531 799.988281 741.484375 C 800.242188 742.832031 802.808594 744.460938 805.433594 744.933594 C 808.144531 745.425781 810.082031 743.8125 810.667969 740.578125 C 811.65625 735.128906 807.683594 730.964844 804.121094 733.707031 M 865.378906 749.738281 C 862.683594 751.164062 861.570312 753.109375 861.851562 755.898438 C 862.160156 758.953125 863.988281 761.578125 866.472656 762.527344 C 870.226562 763.960938 873.929688 761.492188 874.738281 757.015625 C 875.101562 755.023438 874.804688 754.039062 873.210938 751.945312 C 870.875 748.867188 868.359375 748.15625 865.378906 749.738281 M 822.949219 741.816406 C 821.597656 742.367188 820.050781 745.320312 819.488281 748.429688 C 818.964844 751.320312 820.046875 753.652344 822.589844 755.105469 C 824.890625 756.421875 830.960938 752.9375 831.496094 749.996094 C 831.863281 747.953125 830.457031 744.207031 828.917969 743.136719 C 827.191406 741.941406 824.242188 741.289062 822.949219 741.816406 M 844.800781 748.15625 C 843.808594 748.441406 842.253906 749.691406 841.34375 750.929688 C 839.949219 752.820312 839.742188 753.570312 840.027344 755.625 C 840.628906 759.890625 844.421875 762.804688 847.335938 761.230469 C 850.070312 759.75 851.957031 753.960938 850.863281 750.398438 C 850.132812 748.027344 847.984375 747.230469 844.800781 748.15625 M 878.378906 766.070312 C 876.007812 768.710938 871.261719 771.027344 868.199219 771.046875 C 865.195312 771.066406 860.566406 768.8125 858.503906 766.328125 L 856.894531 764.386719 L 854.238281 766.34375 C 852.777344 767.421875 850.429688 768.558594 849.015625 768.871094 C 843.40625 770.105469 835.777344 767.078125 833.453125 762.691406 L 832.378906 760.667969 L 829.261719 761.613281 C 827.214844 762.234375 824.542969 762.363281 821.46875 761.988281 C 815.871094 761.304688 813.515625 759.574219 812.191406 755.171875 L 811.347656 752.371094 L 807.867188 752.449219 C 804.632812 752.523438 803.917969 752.902344 797.695312 757.839844 C 789.828125 764.078125 771.558594 776.570312 764.515625 780.527344 C 751.84375 787.640625 730.644531 794.523438 714.046875 796.910156 C 704.738281 798.246094 701.191406 800.351562 700.492188 804.945312 C 699.832031 809.292969 701.511719 809.429688 709.390625 805.683594 C 713.816406 803.582031 722.984375 801.074219 726.023438 801.140625 C 728.828125 801.203125 730.972656 803.621094 730.507812 806.191406 C 730.121094 808.332031 725.75 811.117188 720.929688 812.296875 C 704.871094 816.226562 704.058594 816.519531 703.695312 818.503906 C 703.210938 821.199219 704.183594 822.1875 707.996094 822.863281 C 712.746094 823.703125 716.0625 822.570312 724.324219 817.289062 C 734.3125 810.90625 738.714844 809.910156 741.753906 813.335938 C 745.117188 817.132812 742.289062 819.5625 728.519531 824.710938 C 723.484375 826.597656 717.972656 828.605469 716.273438 829.175781 C 714.574219 829.746094 713.125 830.539062 713.050781 830.941406 C 712.84375 832.089844 716.144531 834.59375 718.402344 835.003906 C 720.027344 835.296875 721.667969 834.601562 726.273438 831.660156 C 730.902344 828.703125 733.808594 827.472656 740.5 825.632812 C 750.628906 822.855469 752.746094 822.765625 754.328125 825.046875 C 757.332031 829.378906 753.839844 831.746094 740.789062 834.238281 C 731.378906 836.03125 729.5 837.707031 731.394531 842.613281 C 733.058594 846.925781 737.847656 849.386719 744.316406 849.257812 C 757.152344 849 772.347656 846.1875 793.550781 840.140625 C 814.101562 834.28125 821.578125 834.003906 840.714844 838.398438 C 858.613281 842.507812 870.003906 844.164062 874.605469 843.332031 C 879.640625 842.421875 884.375 839.101562 887.253906 834.453125 C 889.09375 831.480469 889.710938 829.632812 890.660156 824.210938 C 892.035156 816.398438 891.605469 812.441406 887.644531 796.398438 C 884.886719 785.226562 883.703125 777.660156 883.648438 770.847656 C 883.617188 767.230469 883.34375 766.335938 881.941406 765.253906 C 880.320312 764.003906 880.21875 764.027344 878.378906 766.070312 M 941.679688 950.09375 C 940.128906 951.03125 939.738281 951.523438 940.441406 951.667969 C 941.9375 951.96875 944.226562 950.691406 944.078125 949.636719 C 943.984375 949.003906 943.265625 949.140625 941.679688 950.09375 " fill-opacity="1" fill-rule="evenodd"/></g></g></g></svg>