<svg xmlns="http://www.w3.org/2000/svg" xmlns:xlink="http://www.w3.org/1999/xlink" width="370" zoomAndPan="magnify" viewBox="0 0 277.5 74.999997" height="100" preserveAspectRatio="xMidYMid meet" version="1.0"><defs><g/><clipPath id="e3addd0996"><path d="M 92 0.0664062 L 277 0.0664062 L 277 74 L 92 74 Z M 92 0.0664062 " clip-rule="nonzero"/></clipPath><clipPath id="5c18fb0464"><path d="M 38 36 L 182 36 L 182 73.136719 L 38 73.136719 Z M 38 36 " clip-rule="nonzero"/></clipPath><clipPath id="ddc8ee2669"><rect x="0" width="144" y="0" height="38"/></clipPath><clipPath id="0aa69314bf"><rect x="0" width="185" y="0" height="74"/></clipPath><clipPath id="37c957e260"><path d="M 9.1875 7.292969 L 86 7.292969 L 86 73 L 9.1875 73 Z M 9.1875 7.292969 " clip-rule="nonzero"/></clipPath><clipPath id="2a3d62090d"><path d="M 9.1875 7.292969 L 86.296875 7.292969 L 86.296875 73.171875 L 9.1875 73.171875 Z M 9.1875 7.292969 " clip-rule="nonzero"/></clipPath><clipPath id="e38c5108dc"><path d="M 20 0.0664062 L 97 0.0664062 L 97 64 L 20 64 Z M 20 0.0664062 " clip-rule="nonzero"/></clipPath><clipPath id="4a9cd5c75e"><path d="M 2 0.0664062 L 76.546875 0.0664062 L 76.546875 48 L 2 48 Z M 2 0.0664062 " clip-rule="nonzero"/></clipPath><clipPath id="4469960410"><path d="M 50.945312 -26.488281 L 76.324219 21.765625 L 28.070312 47.140625 L 2.691406 -1.113281 Z M 50.945312 -26.488281 " clip-rule="nonzero"/></clipPath><clipPath id="71dd33a870"><path d="M 11 10 L 39 10 L 39 28 L 11 28 Z M 11 10 " clip-rule="nonzero"/></clipPath><clipPath id="b5ec4bc14c"><path d="M 48.945312 -26.488281 L 74.324219 21.765625 L 26.070312 47.140625 L 0.691406 -1.113281 Z M 48.945312 -26.488281 " clip-rule="nonzero"/></clipPath><clipPath id="d45f2a6df2"><path d="M 26.0625 47.167969 L 0.683594 -1.085938 L 48.9375 -26.460938 L 74.3125 21.789062 Z M 26.0625 47.167969 " clip-rule="nonzero"/></clipPath><clipPath id="011db8640e"><path d="M 26.0625 47.167969 L 0.683594 -1.085938 L 48.9375 -26.460938 L 74.3125 21.789062 Z M 26.0625 47.167969 " clip-rule="nonzero"/></clipPath><clipPath id="7049af35e8"><rect x="0" width="75" y="0" height="48"/></clipPath><clipPath id="2885c93d95"><path d="M 23 24 L 42 24 L 42 43 L 23 43 Z M 23 24 " clip-rule="nonzero"/></clipPath><clipPath id="b573ecdf42"><path d="M 13.257812 7.777344 L 60.019531 16.246094 L 51.550781 63.007812 L 4.789062 54.539062 Z M 13.257812 7.777344 " clip-rule="nonzero"/></clipPath><clipPath id="b1572e2293"><path d="M 13.257812 7.777344 L 60.019531 16.246094 L 51.550781 63.007812 L 4.789062 54.539062 Z M 13.257812 7.777344 " clip-rule="nonzero"/></clipPath><clipPath id="8815023523"><path d="M 13.257812 7.777344 L 60.019531 16.246094 L 51.550781 63.007812 L 4.789062 54.539062 Z M 13.257812 7.777344 " clip-rule="nonzero"/></clipPath><clipPath id="6351531219"><rect x="0" width="77" y="0" height="64"/></clipPath></defs><g clip-path="url(#e3addd0996)"><g transform="matrix(1, 0, 0, 1, 92, 0.000000000000005912)"><g clip-path="url(#0aa69314bf)"><g fill="#000000" fill-opacity="1"><g transform="translate(1.175289, 38.076559)"><g><path d="M 3.671875 0 L 3.671875 -25.21875 L 6.625 -25.21875 L 16.53125 -10.265625 L 26.375 -25.21875 L 29.328125 -25.21875 L 29.328125 0 L 26.15625 0 L 26.15625 -19.28125 L 17.796875 -6.703125 L 15.203125 -6.703125 L 6.84375 -19.3125 L 6.84375 0 Z M 3.671875 0 "/></g></g></g><g fill="#000000" fill-opacity="1"><g transform="translate(49.823229, 38.076559)"><g><path d="M 0.609375 0 L 10.984375 -25.21875 L 13.9375 -25.21875 L 24.328125 0 L 20.96875 0 L 18.59375 -5.734375 L 6.3125 -5.734375 L 4 0 Z M 7.53125 -8.6875 L 17.40625 -8.6875 L 12.46875 -20.796875 Z M 7.53125 -8.6875 "/></g></g></g><g fill="#000000" fill-opacity="1"><g transform="translate(90.399286, 38.076559)"><g><path d="M 9.765625 0 L 9.765625 -22.1875 L 1.21875 -22.1875 L 1.21875 -25.21875 L 21.4375 -25.21875 L 21.4375 -22.1875 L 12.9375 -22.1875 L 12.9375 0 Z M 9.765625 0 "/></g></g></g><g fill="#000000" fill-opacity="1"><g transform="translate(128.741164, 38.076559)"><g><path d="M 3.671875 0 L 3.671875 -25.21875 L 13.296875 -25.21875 C 15.046875 -25.21875 16.566406 -24.882812 17.859375 -24.21875 C 19.160156 -23.5625 20.171875 -22.632812 20.890625 -21.4375 C 21.617188 -20.238281 21.984375 -18.796875 21.984375 -17.109375 C 21.984375 -15.066406 21.453125 -13.378906 20.390625 -12.046875 C 19.335938 -10.710938 17.882812 -9.820312 16.03125 -9.375 L 22.375 0 L 18.5625 0 L 12.390625 -9.046875 L 6.84375 -9.046875 L 6.84375 0 Z M 6.84375 -12.078125 L 12.9375 -12.078125 C 14.78125 -12.078125 16.207031 -12.515625 17.21875 -13.390625 C 18.226562 -14.265625 18.734375 -15.503906 18.734375 -17.109375 C 18.734375 -18.722656 18.226562 -19.972656 17.21875 -20.859375 C 16.207031 -21.742188 14.78125 -22.1875 12.9375 -22.1875 L 6.84375 -22.1875 Z M 6.84375 -12.078125 "/></g></g></g><g fill="#000000" fill-opacity="1"><g transform="translate(168.920833, 38.076559)"><g><path d="M 3.671875 0 L 3.671875 -25.21875 L 6.84375 -25.21875 L 6.84375 0 Z M 3.671875 0 "/></g></g></g><g clip-path="url(#5c18fb0464)"><g transform="matrix(1, 0, 0, 1, 38, 36)"><g clip-path="url(#ddc8ee2669)"><g fill="#000000" fill-opacity="1"><g transform="translate(1.24261, 26.855087)"><g><path d="M 2.3125 0 L 2.3125 -12.90625 L 4.03125 -12.90625 L 4.28125 -10.671875 C 4.738281 -11.453125 5.3125 -12.019531 6 -12.375 C 6.695312 -12.726562 7.59375 -12.90625 8.6875 -12.90625 L 9.84375 -12.90625 L 9.84375 -10.96875 L 8.578125 -10.96875 C 7.796875 -10.96875 7.085938 -10.8125 6.453125 -10.5 C 5.828125 -10.1875 5.328125 -9.660156 4.953125 -8.921875 C 4.585938 -8.191406 4.40625 -7.21875 4.40625 -6 L 4.40625 0 Z M 2.3125 0 "/></g></g></g><g fill="#000000" fill-opacity="1"><g transform="translate(14.025875, 26.855087)"><g><path d="M 6.546875 0.203125 C 4.984375 0.203125 3.757812 -0.148438 2.875 -0.859375 C 2 -1.566406 1.5625 -2.523438 1.5625 -3.734375 C 1.5625 -4.910156 1.96875 -5.847656 2.78125 -6.546875 C 3.59375 -7.242188 4.671875 -7.59375 6.015625 -7.59375 L 11.296875 -7.59375 L 11.296875 -8.0625 C 11.296875 -9.070312 10.976562 -9.863281 10.34375 -10.4375 C 9.71875 -11.007812 8.859375 -11.296875 7.765625 -11.296875 C 6.929688 -11.296875 6.207031 -11.109375 5.59375 -10.734375 C 4.976562 -10.359375 4.566406 -9.859375 4.359375 -9.234375 L 2.234375 -9.234375 C 2.515625 -10.472656 3.148438 -11.445312 4.140625 -12.15625 C 5.128906 -12.875 6.328125 -13.234375 7.734375 -13.234375 C 8.859375 -13.234375 9.84375 -13.019531 10.6875 -12.59375 C 11.539062 -12.175781 12.203125 -11.585938 12.671875 -10.828125 C 13.140625 -10.078125 13.375 -9.203125 13.375 -8.203125 L 13.375 0 L 11.671875 0 L 11.4375 -1.796875 C 10.257812 -0.460938 8.628906 0.203125 6.546875 0.203125 Z M 3.65625 -3.75 C 3.65625 -3.125 3.921875 -2.617188 4.453125 -2.234375 C 4.984375 -1.859375 5.703125 -1.671875 6.609375 -1.671875 C 7.503906 -1.671875 8.300781 -1.84375 9 -2.1875 C 9.695312 -2.539062 10.253906 -3.019531 10.671875 -3.625 C 11.085938 -4.238281 11.300781 -4.945312 11.3125 -5.75 L 6.09375 -5.75 C 5.382812 -5.75 4.800781 -5.566406 4.34375 -5.203125 C 3.882812 -4.847656 3.65625 -4.363281 3.65625 -3.75 Z M 3.65625 -3.75 "/></g></g></g><g fill="#000000" fill-opacity="1"><g transform="translate(32.429569, 26.855087)"><g><path d="M -1.140625 5.078125 L -1.140625 3.140625 L 0.296875 3.140625 C 0.992188 3.140625 1.5 2.96875 1.8125 2.625 C 2.125 2.28125 2.28125 1.628906 2.28125 0.671875 L 2.28125 -12.90625 L 4.375 -12.90625 L 4.375 0.71875 C 4.375 2.175781 4.078125 3.265625 3.484375 3.984375 C 2.898438 4.710938 1.878906 5.078125 0.421875 5.078125 Z M 1.640625 -16.671875 C 1.640625 -17.148438 1.789062 -17.539062 2.09375 -17.84375 C 2.40625 -18.15625 2.816406 -18.3125 3.328125 -18.3125 C 3.828125 -18.3125 4.226562 -18.15625 4.53125 -17.84375 C 4.84375 -17.539062 5 -17.148438 5 -16.671875 C 5 -16.203125 4.84375 -15.8125 4.53125 -15.5 C 4.226562 -15.195312 3.828125 -15.046875 3.328125 -15.046875 C 2.816406 -15.046875 2.40625 -15.195312 2.09375 -15.5 C 1.789062 -15.8125 1.640625 -16.203125 1.640625 -16.671875 Z M 1.640625 -16.671875 "/></g></g></g><g fill="#000000" fill-opacity="1"><g transform="translate(42.104364, 26.855087)"><g><path d="M 6.546875 0.203125 C 4.984375 0.203125 3.757812 -0.148438 2.875 -0.859375 C 2 -1.566406 1.5625 -2.523438 1.5625 -3.734375 C 1.5625 -4.910156 1.96875 -5.847656 2.78125 -6.546875 C 3.59375 -7.242188 4.671875 -7.59375 6.015625 -7.59375 L 11.296875 -7.59375 L 11.296875 -8.0625 C 11.296875 -9.070312 10.976562 -9.863281 10.34375 -10.4375 C 9.71875 -11.007812 8.859375 -11.296875 7.765625 -11.296875 C 6.929688 -11.296875 6.207031 -11.109375 5.59375 -10.734375 C 4.976562 -10.359375 4.566406 -9.859375 4.359375 -9.234375 L 2.234375 -9.234375 C 2.515625 -10.472656 3.148438 -11.445312 4.140625 -12.15625 C 5.128906 -12.875 6.328125 -13.234375 7.734375 -13.234375 C 8.859375 -13.234375 9.84375 -13.019531 10.6875 -12.59375 C 11.539062 -12.175781 12.203125 -11.585938 12.671875 -10.828125 C 13.140625 -10.078125 13.375 -9.203125 13.375 -8.203125 L 13.375 0 L 11.671875 0 L 11.4375 -1.796875 C 10.257812 -0.460938 8.628906 0.203125 6.546875 0.203125 Z M 3.65625 -3.75 C 3.65625 -3.125 3.921875 -2.617188 4.453125 -2.234375 C 4.984375 -1.859375 5.703125 -1.671875 6.609375 -1.671875 C 7.503906 -1.671875 8.300781 -1.84375 9 -2.1875 C 9.695312 -2.539062 10.253906 -3.019531 10.671875 -3.625 C 11.085938 -4.238281 11.300781 -4.945312 11.3125 -5.75 L 6.09375 -5.75 C 5.382812 -5.75 4.800781 -5.566406 4.34375 -5.203125 C 3.882812 -4.847656 3.65625 -4.363281 3.65625 -3.75 Z M 3.65625 -3.75 "/></g></g></g><g fill="#000000" fill-opacity="1"><g transform="translate(60.508058, 26.855087)"><g/></g></g><g fill="#000000" fill-opacity="1"><g transform="translate(69.113447, 26.855087)"><g><path d="M 1.859375 4.96875 L 1.859375 3.015625 L 3.140625 3.015625 C 3.960938 3.015625 4.5625 2.890625 4.9375 2.640625 C 5.320312 2.398438 5.648438 1.925781 5.921875 1.21875 L 6.515625 -0.296875 L 0.390625 -12.90625 L 2.734375 -12.90625 L 5.640625 -6.8125 L 7.53125 -2.8125 L 9.109375 -6.8125 L 11.515625 -12.90625 L 13.734375 -12.90625 L 7.8125 2.015625 C 7.507812 2.796875 7.160156 3.398438 6.765625 3.828125 C 6.378906 4.265625 5.910156 4.5625 5.359375 4.71875 C 4.816406 4.882812 4.140625 4.96875 3.328125 4.96875 Z M 1.859375 4.96875 "/></g></g></g><g fill="#000000" fill-opacity="1"><g transform="translate(85.676808, 26.855087)"><g><path d="M 8.140625 0.328125 C 6.796875 0.328125 5.609375 0.0351562 4.578125 -0.546875 C 3.546875 -1.128906 2.738281 -1.929688 2.15625 -2.953125 C 1.582031 -3.984375 1.296875 -5.15625 1.296875 -6.46875 C 1.296875 -7.789062 1.582031 -8.957031 2.15625 -9.96875 C 2.738281 -10.988281 3.546875 -11.785156 4.578125 -12.359375 C 5.609375 -12.941406 6.796875 -13.234375 8.140625 -13.234375 C 9.484375 -13.234375 10.664062 -12.941406 11.6875 -12.359375 C 12.71875 -11.785156 13.519531 -10.988281 14.09375 -9.96875 C 14.675781 -8.957031 14.96875 -7.789062 14.96875 -6.46875 C 14.96875 -5.15625 14.675781 -3.984375 14.09375 -2.953125 C 13.519531 -1.929688 12.71875 -1.128906 11.6875 -0.546875 C 10.664062 0.0351562 9.484375 0.328125 8.140625 0.328125 Z M 3.390625 -6.46875 C 3.390625 -5.519531 3.59375 -4.6875 4 -3.96875 C 4.40625 -3.25 4.960938 -2.6875 5.671875 -2.28125 C 6.378906 -1.882812 7.203125 -1.6875 8.140625 -1.6875 C 9.066406 -1.6875 9.882812 -1.882812 10.59375 -2.28125 C 11.3125 -2.6875 11.875 -3.25 12.28125 -3.96875 C 12.6875 -4.6875 12.890625 -5.519531 12.890625 -6.46875 C 12.890625 -7.414062 12.6875 -8.242188 12.28125 -8.953125 C 11.875 -9.671875 11.3125 -10.234375 10.59375 -10.640625 C 9.882812 -11.046875 9.066406 -11.25 8.140625 -11.25 C 7.203125 -11.25 6.378906 -11.046875 5.671875 -10.640625 C 4.960938 -10.234375 4.40625 -9.671875 4 -8.953125 C 3.59375 -8.242188 3.390625 -7.414062 3.390625 -6.46875 Z M 3.390625 -6.46875 "/></g></g></g><g fill="#000000" fill-opacity="1"><g transform="translate(104.926037, 26.855087)"><g><path d="M 8.078125 5.296875 C 6.441406 5.296875 5.078125 4.894531 3.984375 4.09375 C 2.890625 3.289062 2.222656 2.203125 1.984375 0.828125 L 4.109375 0.828125 C 4.304688 1.597656 4.753906 2.210938 5.453125 2.671875 C 6.148438 3.128906 7.023438 3.359375 8.078125 3.359375 C 9.441406 3.359375 10.492188 2.992188 11.234375 2.265625 C 11.984375 1.535156 12.359375 0.503906 12.359375 -0.828125 L 12.359375 -2.046875 C 11.796875 -1.441406 11.113281 -0.96875 10.3125 -0.625 C 9.519531 -0.289062 8.660156 -0.125 7.734375 -0.125 C 6.503906 -0.125 5.40625 -0.410156 4.4375 -0.984375 C 3.46875 -1.554688 2.703125 -2.332031 2.140625 -3.3125 C 1.578125 -4.300781 1.296875 -5.425781 1.296875 -6.6875 C 1.296875 -7.945312 1.578125 -9.066406 2.140625 -10.046875 C 2.703125 -11.023438 3.46875 -11.800781 4.4375 -12.375 C 5.40625 -12.945312 6.503906 -13.234375 7.734375 -13.234375 C 8.710938 -13.234375 9.613281 -13.050781 10.4375 -12.6875 C 11.257812 -12.320312 11.953125 -11.816406 12.515625 -11.171875 L 12.734375 -12.90625 L 14.453125 -12.90625 L 14.453125 -0.75 C 14.453125 0.457031 14.191406 1.519531 13.671875 2.4375 C 13.148438 3.351562 12.410156 4.054688 11.453125 4.546875 C 10.503906 5.046875 9.378906 5.296875 8.078125 5.296875 Z M 3.390625 -6.6875 C 3.390625 -5.8125 3.582031 -5.03125 3.96875 -4.34375 C 4.351562 -3.65625 4.894531 -3.117188 5.59375 -2.734375 C 6.289062 -2.359375 7.078125 -2.171875 7.953125 -2.171875 C 8.847656 -2.171875 9.640625 -2.359375 10.328125 -2.734375 C 11.023438 -3.117188 11.566406 -3.65625 11.953125 -4.34375 C 12.335938 -5.03125 12.53125 -5.8125 12.53125 -6.6875 C 12.53125 -7.570312 12.335938 -8.351562 11.953125 -9.03125 C 11.566406 -9.707031 11.023438 -10.238281 10.328125 -10.625 C 9.640625 -11.019531 8.847656 -11.21875 7.953125 -11.21875 C 7.078125 -11.21875 6.289062 -11.019531 5.59375 -10.625 C 4.894531 -10.238281 4.351562 -9.707031 3.96875 -9.03125 C 3.582031 -8.351562 3.390625 -7.570312 3.390625 -6.6875 Z M 3.390625 -6.6875 "/></g></g></g><g fill="#000000" fill-opacity="1"><g transform="translate(124.672642, 26.855087)"><g><path d="M 6.546875 0.203125 C 4.984375 0.203125 3.757812 -0.148438 2.875 -0.859375 C 2 -1.566406 1.5625 -2.523438 1.5625 -3.734375 C 1.5625 -4.910156 1.96875 -5.847656 2.78125 -6.546875 C 3.59375 -7.242188 4.671875 -7.59375 6.015625 -7.59375 L 11.296875 -7.59375 L 11.296875 -8.0625 C 11.296875 -9.070312 10.976562 -9.863281 10.34375 -10.4375 C 9.71875 -11.007812 8.859375 -11.296875 7.765625 -11.296875 C 6.929688 -11.296875 6.207031 -11.109375 5.59375 -10.734375 C 4.976562 -10.359375 4.566406 -9.859375 4.359375 -9.234375 L 2.234375 -9.234375 C 2.515625 -10.472656 3.148438 -11.445312 4.140625 -12.15625 C 5.128906 -12.875 6.328125 -13.234375 7.734375 -13.234375 C 8.859375 -13.234375 9.84375 -13.019531 10.6875 -12.59375 C 11.539062 -12.175781 12.203125 -11.585938 12.671875 -10.828125 C 13.140625 -10.078125 13.375 -9.203125 13.375 -8.203125 L 13.375 0 L 11.671875 0 L 11.4375 -1.796875 C 10.257812 -0.460938 8.628906 0.203125 6.546875 0.203125 Z M 3.65625 -3.75 C 3.65625 -3.125 3.921875 -2.617188 4.453125 -2.234375 C 4.984375 -1.859375 5.703125 -1.671875 6.609375 -1.671875 C 7.503906 -1.671875 8.300781 -1.84375 9 -2.1875 C 9.695312 -2.539062 10.253906 -3.019531 10.671875 -3.625 C 11.085938 -4.238281 11.300781 -4.945312 11.3125 -5.75 L 6.09375 -5.75 C 5.382812 -5.75 4.800781 -5.566406 4.34375 -5.203125 C 3.882812 -4.847656 3.65625 -4.363281 3.65625 -3.75 Z M 3.65625 -3.75 "/></g></g></g></g></g></g></g></g></g><g clip-path="url(#37c957e260)"><path fill="#ffffff" d="M 85.824219 7.730469 L 9.695312 7.730469 L 47.75 72.734375 Z M 85.824219 7.730469 " fill-opacity="1" fill-rule="nonzero"/></g><g clip-path="url(#2a3d62090d)"><path fill="#070404" d="M 9.695312 7.292969 L 85.824219 7.292969 C 85.984375 7.292969 86.125 7.378906 86.210938 7.519531 C 86.285156 7.660156 86.285156 7.820312 86.210938 7.957031 L 48.140625 72.960938 C 48.070312 73.101562 47.910156 73.171875 47.75 73.171875 C 47.589844 73.171875 47.449219 73.085938 47.363281 72.960938 L 9.289062 7.957031 C 9.21875 7.820312 9.199219 7.660156 9.289062 7.519531 C 9.378906 7.378906 9.535156 7.292969 9.695312 7.292969 Z M 85.0625 8.167969 L 10.457031 8.167969 L 47.75 71.855469 Z M 85.0625 8.167969 " fill-opacity="1" fill-rule="nonzero"/></g><g clip-path="url(#e38c5108dc)"><g transform="matrix(1, 0, 0, 1, 20, 0.000000000000005912)"><g clip-path="url(#6351531219)"><path fill="#000000" d="M 41.054688 28.253906 C 40.824219 28.394531 40.828125 28.5625 41.074219 28.972656 C 41.308594 29.363281 41.492188 29.757812 41.664062 30.25 C 41.839844 30.742188 41.886719 31.582031 41.765625 32.09375 C 41.242188 34.320312 38.917969 35.648438 35.546875 35.648438 C 34.464844 35.648438 33.460938 35.558594 32.75 35.402344 C 32.023438 35.242188 30.984375 35.183594 30.429688 35.265625 C 30.222656 35.296875 29.792969 35.390625 29.472656 35.46875 C 28.976562 35.59375 28.777344 35.613281 28.167969 35.613281 C 27.550781 35.613281 27.34375 35.585938 26.6875 35.4375 C 25.941406 35.265625 25.90625 35.261719 24.984375 35.289062 C 24.160156 35.3125 23.980469 35.335938 23.515625 35.46875 L 22.980469 35.621094 L 21.28125 35.621094 C 19.734375 35.621094 19.511719 35.609375 18.859375 35.496094 C 17.980469 35.34375 16.996094 35.027344 16.46875 34.726562 C 15.796875 34.347656 15.25 33.730469 14.898438 32.96875 C 14.605469 32.34375 14.53125 31.976562 14.535156 31.257812 C 14.535156 30.714844 14.558594 30.554688 14.683594 30.167969 C 14.828125 29.71875 15.136719 29.066406 15.347656 28.757812 C 15.492188 28.546875 15.484375 28.441406 15.316406 28.308594 C 15.085938 28.128906 14.730469 28.160156 14.394531 28.386719 C 13.753906 28.816406 13.183594 29.410156 12.640625 30.214844 C 12.109375 31 11.785156 31.976562 11.683594 33.09375 C 11.589844 34.179688 11.8125 35.390625 12.289062 36.332031 C 12.523438 36.804688 13.035156 37.476562 13.421875 37.832031 C 14.238281 38.578125 15.867188 39.378906 17.316406 39.742188 C 17.449219 39.777344 17.6875 39.839844 17.84375 39.886719 L 18.128906 39.96875 L 17.578125 40.144531 C 17.273438 40.242188 16.738281 40.46875 16.386719 40.648438 C 15.757812 40.964844 13.148438 42.675781 13.046875 42.835938 C 12.898438 43.066406 13.183594 43.355469 13.976562 43.78125 C 15.460938 44.582031 17.347656 44.761719 18.785156 44.242188 C 19.296875 44.054688 19.898438 43.6875 20.296875 43.320312 L 20.65625 42.992188 L 20.683594 43.960938 C 20.734375 45.679688 20.984375 46.277344 22.222656 47.601562 C 23.027344 48.457031 23.214844 48.859375 23.40625 50.144531 C 23.5 50.757812 23.507812 50.992188 23.4375 51.300781 C 23.410156 51.425781 23.359375 51.765625 23.324219 52.0625 C 23.203125 53.085938 23.441406 53.617188 24.480469 54.636719 C 24.839844 54.992188 25.136719 55.300781 25.136719 55.324219 C 25.136719 55.402344 25.84375 55.949219 26.121094 56.085938 C 26.703125 56.378906 26.9375 56.417969 28.140625 56.417969 C 29.160156 56.417969 29.292969 56.40625 29.65625 56.292969 C 30.175781 56.132812 30.6875 55.828125 31.015625 55.484375 C 31.160156 55.332031 31.554688 54.929688 31.894531 54.589844 C 32.585938 53.890625 32.792969 53.546875 32.933594 52.878906 C 33.023438 52.453125 33.007812 52.15625 32.867188 51.652344 C 32.800781 51.402344 32.796875 51.238281 32.84375 50.613281 C 32.941406 49.257812 33.277344 48.484375 34.191406 47.519531 C 34.875 46.789062 35.125 46.433594 35.351562 45.84375 C 35.589844 45.230469 35.664062 44.738281 35.667969 43.769531 L 35.667969 42.929688 L 35.921875 43.175781 C 36.453125 43.6875 37.179688 44.089844 38.046875 44.351562 C 38.421875 44.460938 38.664062 44.496094 39.257812 44.515625 C 40.363281 44.554688 40.988281 44.394531 42.40625 43.703125 C 43.121094 43.355469 43.273438 43.222656 43.273438 42.945312 C 43.273438 42.792969 43.128906 42.683594 41.730469 41.792969 C 40.359375 40.914062 39.609375 40.515625 38.710938 40.175781 L 38.167969 39.972656 L 38.632812 39.855469 C 40.621094 39.355469 42.160156 38.582031 43.070312 37.625 C 43.890625 36.765625 44.425781 35.71875 44.660156 34.515625 C 44.792969 33.851562 44.789062 33.316406 44.65625 32.539062 C 44.480469 31.492188 44.1875 30.773438 43.644531 30.054688 C 43.335938 29.640625 42.46875 28.800781 41.953125 28.414062 C 41.550781 28.113281 41.34375 28.074219 41.054688 28.253906 M 13.742188 29.863281 C 13.304688 30.367188 13.144531 30.589844 12.933594 30.972656 C 12.5 31.765625 12.285156 32.695312 12.339844 33.578125 C 12.507812 36.40625 13.917969 38.042969 17 38.972656 C 17.78125 39.210938 19.628906 39.578125 19.695312 39.507812 C 19.710938 39.496094 19.765625 39.214844 19.820312 38.882812 C 19.960938 38.0625 20.132812 37.535156 20.480469 36.855469 L 20.777344 36.285156 L 20.386719 36.285156 C 19.898438 36.285156 18.824219 36.152344 18.195312 36.015625 C 17.558594 35.878906 17.125 35.730469 16.53125 35.457031 C 15.183594 34.832031 14.5 34.074219 14.007812 32.664062 C 13.835938 32.171875 13.832031 32.148438 13.832031 31.230469 C 13.832031 30.367188 13.84375 30.273438 13.96875 29.914062 C 14.046875 29.703125 14.089844 29.53125 14.066406 29.53125 C 14.046875 29.53125 13.898438 29.679688 13.742188 29.863281 M 42.210938 29.539062 C 42.210938 29.554688 42.25 29.675781 42.292969 29.800781 C 42.449219 30.230469 42.582031 30.933594 42.582031 31.328125 C 42.585938 32.695312 41.800781 34.128906 40.617188 34.925781 C 40.1875 35.210938 39.3125 35.640625 38.804688 35.808594 C 38.269531 35.988281 37.257812 36.167969 36.398438 36.242188 C 35.964844 36.277344 35.621094 36.320312 35.628906 36.335938 C 36.246094 37.570312 36.46875 38.207031 36.585938 39.0625 L 36.648438 39.527344 L 36.863281 39.496094 C 38.933594 39.207031 40.429688 38.710938 41.664062 37.902344 C 43.089844 36.976562 43.910156 35.503906 44.003906 33.722656 C 44.066406 32.515625 43.792969 31.609375 43.035156 30.460938 C 42.789062 30.09375 42.210938 29.445312 42.210938 29.539062 M 24.585938 35.914062 C 23.929688 35.992188 23.808594 36.027344 23.527344 36.214844 C 23.042969 36.542969 22.699219 36.917969 22.472656 37.371094 C 22.113281 38.085938 21.839844 39.191406 21.839844 39.925781 C 21.839844 40.1875 21.8125 40.289062 21.710938 40.425781 C 21.558594 40.632812 21.488281 41 21.414062 41.957031 C 21.308594 43.277344 21.355469 44.710938 21.527344 45.351562 C 21.601562 45.636719 21.867188 46.15625 22.070312 46.417969 C 22.160156 46.535156 22.429688 46.835938 22.664062 47.082031 C 22.902344 47.332031 23.171875 47.652344 23.269531 47.792969 C 23.675781 48.382812 24.027344 49.367188 24.109375 50.128906 L 24.140625 50.433594 L 24.402344 50.191406 C 24.714844 49.898438 25.101562 49.714844 25.554688 49.640625 C 25.742188 49.609375 25.910156 49.574219 25.925781 49.554688 C 25.945312 49.539062 26 49.171875 26.050781 48.742188 C 26.277344 46.832031 26.066406 44.105469 25.617188 43.117188 C 25.269531 42.347656 24.292969 41.621094 23.332031 41.417969 C 22.894531 41.324219 22.691406 41.148438 22.785156 40.941406 C 22.910156 40.664062 23.273438 40.652344 23.992188 40.894531 C 24.933594 41.214844 25.84375 42.011719 26.300781 42.921875 C 26.484375 43.28125 26.664062 44.070312 26.742188 44.824219 C 26.835938 45.761719 26.824219 48.492188 26.722656 49.113281 L 26.648438 49.574219 L 27.367188 49.613281 C 28.050781 49.648438 29.015625 49.617188 29.464844 49.546875 L 29.671875 49.515625 L 29.636719 49.269531 C 29.539062 48.597656 29.523438 48.269531 29.527344 46.84375 C 29.53125 44.59375 29.640625 43.726562 30.03125 42.90625 C 30.414062 42.105469 31.015625 41.511719 31.863281 41.097656 C 32.699219 40.6875 33.386719 40.605469 33.570312 40.886719 C 33.734375 41.132812 33.488281 41.359375 33.007812 41.410156 C 32.542969 41.460938 31.738281 41.886719 31.273438 42.332031 C 30.738281 42.847656 30.546875 43.269531 30.339844 44.421875 C 30.253906 44.910156 30.222656 45.335938 30.203125 46.511719 C 30.179688 47.851562 30.238281 49.152344 30.332031 49.398438 C 30.347656 49.445312 30.433594 49.476562 30.535156 49.476562 C 30.792969 49.476562 31.503906 49.855469 31.871094 50.191406 L 32.199219 50.484375 L 32.234375 50.214844 C 32.316406 49.589844 32.578125 48.734375 32.84375 48.21875 C 33.054688 47.808594 33.230469 47.566406 33.648438 47.109375 C 34.691406 45.964844 34.855469 45.597656 34.976562 44.105469 C 35.015625 43.621094 35.015625 43.128906 34.972656 42.445312 C 34.90625 41.3125 34.8125 40.714844 34.667969 40.472656 C 34.601562 40.371094 34.546875 40.152344 34.523438 39.929688 C 34.417969 38.828125 34.230469 38.085938 33.878906 37.367188 C 33.667969 36.9375 33.363281 36.601562 32.898438 36.292969 C 32.5625 36.066406 32.300781 35.992188 31.546875 35.90625 C 30.984375 35.839844 30.808594 35.859375 29.695312 36.101562 C 28.589844 36.34375 27.800781 36.355469 26.851562 36.148438 C 25.523438 35.859375 25.277344 35.835938 24.585938 35.914062 M 21.933594 36.304688 C 21.539062 36.363281 21.515625 36.375 21.378906 36.574219 C 21.113281 36.964844 20.660156 38.132812 20.511719 38.804688 C 20.484375 38.925781 20.457031 39.167969 20.449219 39.34375 L 20.433594 39.660156 L 20.738281 39.71875 C 21.113281 39.796875 21.125 39.78125 21.203125 39.261719 C 21.28125 38.742188 21.4375 38.113281 21.601562 37.683594 C 21.738281 37.320312 22.207031 36.507812 22.34375 36.390625 C 22.425781 36.324219 22.453125 36.226562 22.382812 36.238281 C 22.363281 36.242188 22.160156 36.273438 21.933594 36.304688 M 33.964844 36.328125 C 33.964844 36.335938 34.058594 36.46875 34.171875 36.621094 C 34.667969 37.28125 34.960938 38.050781 35.132812 39.117188 C 35.191406 39.46875 35.246094 39.761719 35.253906 39.773438 C 35.265625 39.785156 35.421875 39.765625 35.605469 39.730469 L 35.933594 39.671875 L 35.933594 39.472656 C 35.933594 38.816406 35.429688 37.308594 34.960938 36.570312 L 34.820312 36.347656 L 34.394531 36.328125 C 34.160156 36.320312 33.964844 36.320312 33.964844 36.328125 M 18.699219 40.515625 C 17.457031 40.804688 16.820312 41.109375 15.179688 42.207031 L 13.96875 43.015625 L 14.371094 43.214844 C 15.292969 43.679688 16.539062 43.984375 17.265625 43.921875 C 17.84375 43.871094 18.507812 43.703125 18.945312 43.492188 C 19.359375 43.292969 20.101562 42.65625 20.535156 42.125 L 20.785156 41.820312 L 20.867188 41.152344 C 20.910156 40.78125 20.929688 40.464844 20.910156 40.445312 C 20.890625 40.425781 20.507812 40.402344 20.066406 40.394531 C 19.371094 40.386719 19.179688 40.402344 18.699219 40.515625 M 35.464844 40.429688 C 35.394531 40.472656 35.40625 40.6875 35.539062 41.636719 C 35.570312 41.835938 36.125 42.488281 36.675781 42.964844 C 37.28125 43.488281 38.019531 43.792969 38.960938 43.898438 C 39.597656 43.96875 40.21875 43.875 40.976562 43.589844 C 41.464844 43.410156 42.316406 43.011719 42.316406 42.964844 C 42.316406 42.953125 41.71875 42.582031 40.988281 42.136719 C 38.65625 40.722656 37.738281 40.382812 36.253906 40.382812 C 35.859375 40.382812 35.503906 40.402344 35.464844 40.429688 M 22.554688 43.011719 C 22.496094 43.324219 22.839844 44.171875 23.179688 44.5625 C 23.53125 44.960938 24.171875 45.117188 24.65625 44.921875 C 24.859375 44.84375 24.875 44.84375 25.011719 44.949219 C 25.136719 45.050781 25.167969 45.054688 25.261719 44.992188 C 25.472656 44.851562 25.480469 44.773438 25.316406 44.53125 C 25.183594 44.34375 25.085938 44.277344 24.722656 44.128906 L 24.285156 43.953125 L 24.390625 44.089844 C 24.519531 44.253906 24.464844 44.316406 24.199219 44.316406 C 23.949219 44.316406 23.695312 44.113281 23.515625 43.773438 C 23.425781 43.605469 23.261719 43.398438 23.140625 43.304688 C 23.023438 43.214844 22.90625 43.113281 22.875 43.078125 C 22.84375 43.042969 22.769531 42.96875 22.707031 42.914062 C 22.589844 42.816406 22.589844 42.816406 22.554688 43.011719 M 33.515625 43.070312 C 33.398438 43.113281 33.238281 43.15625 33.15625 43.171875 C 33.078125 43.1875 32.945312 43.261719 32.863281 43.339844 C 32.769531 43.425781 32.75 43.464844 32.808594 43.445312 C 32.925781 43.410156 32.929688 43.511719 32.820312 43.773438 C 32.652344 44.171875 32.28125 44.417969 31.949219 44.34375 C 31.828125 44.316406 31.800781 44.289062 31.824219 44.222656 C 31.851562 44.15625 31.820312 44.164062 31.703125 44.253906 C 31.617188 44.320312 31.472656 44.421875 31.382812 44.476562 C 31.292969 44.535156 31.167969 44.65625 31.097656 44.746094 C 31 44.882812 30.988281 44.921875 31.046875 44.960938 C 31.148438 45.023438 31.328125 45.019531 31.394531 44.953125 C 31.433594 44.914062 31.554688 44.914062 31.800781 44.957031 C 32.773438 45.125 33.40625 44.601562 33.726562 43.355469 C 33.839844 42.929688 33.859375 42.957031 33.515625 43.070312 M 28.992188 50.28125 C 28.789062 50.304688 28.019531 50.308594 27.289062 50.292969 C 25.730469 50.253906 25.4375 50.28125 25.144531 50.476562 C 24.863281 50.667969 24.304688 51.300781 24.148438 51.617188 C 24.039062 51.828125 24.019531 51.945312 24.019531 52.363281 C 24.019531 52.816406 24.035156 52.894531 24.183594 53.195312 C 24.386719 53.59375 24.964844 54.199219 25.316406 54.367188 C 25.589844 54.5 25.546875 54.5 27.476562 54.347656 C 28.667969 54.253906 29.792969 54.285156 30.511719 54.433594 C 30.902344 54.511719 31.085938 54.425781 31.5625 53.921875 C 31.957031 53.507812 32.105469 53.242188 32.234375 52.75 C 32.433594 51.988281 32.246094 51.375 31.644531 50.796875 C 31.125 50.300781 30.257812 50.132812 28.992188 50.28125 M 30.371094 51.589844 C 30.277344 51.671875 29.984375 51.980469 29.722656 52.273438 L 29.238281 52.8125 L 29.367188 53 C 29.5 53.195312 29.820312 53.359375 30.070312 53.359375 C 30.339844 53.359375 30.757812 53.121094 30.917969 52.875 C 31.046875 52.679688 31.066406 52.597656 31.066406 52.265625 C 31.066406 51.914062 31.050781 51.863281 30.902344 51.675781 C 30.699219 51.421875 30.582031 51.402344 30.371094 51.589844 M 25.5 51.644531 C 25.292969 51.863281 25.242188 51.996094 25.242188 52.292969 C 25.242188 53.378906 26.765625 53.789062 27.074219 52.785156 C 27.105469 52.683594 27.070312 52.625 26.859375 52.4375 C 26.445312 52.070312 26.433594 52.066406 26.453125 52.261719 C 26.480469 52.496094 26.386719 52.722656 26.257812 52.722656 C 26.121094 52.722656 25.988281 52.523438 25.988281 52.320312 C 25.988281 52.125 26.070312 52.03125 26.242188 52.03125 C 26.355469 52.03125 26.339844 52 26.09375 51.761719 C 25.945312 51.617188 25.777344 51.496094 25.726562 51.496094 C 25.675781 51.496094 25.574219 51.5625 25.5 51.644531 M 30.035156 52.167969 C 29.921875 52.308594 29.894531 52.480469 29.957031 52.636719 C 30.035156 52.847656 30.402344 52.59375 30.402344 52.328125 C 30.402344 52.019531 30.214844 51.9375 30.035156 52.167969 M 28.15625 54.929688 C 28.140625 54.945312 27.757812 54.984375 27.308594 55.011719 C 26.859375 55.039062 26.375 55.074219 26.230469 55.09375 L 25.964844 55.128906 L 26.097656 55.234375 C 26.347656 55.4375 26.851562 55.65625 27.246094 55.730469 C 28.074219 55.886719 29.320312 55.792969 29.824219 55.535156 C 30.085938 55.402344 30.402344 55.175781 30.402344 55.117188 C 30.402344 55.097656 30.277344 55.074219 30.121094 55.066406 C 29.96875 55.0625 29.628906 55.023438 29.363281 54.980469 C 28.886719 54.902344 28.210938 54.875 28.15625 54.929688 " fill-opacity="1" fill-rule="evenodd"/><g clip-path="url(#4a9cd5c75e)"><g clip-path="url(#4469960410)"><g transform="matrix(1, 0, 0, 1, 2, 0.000000000000005912)"><g clip-path="url(#7049af35e8)"><g clip-path="url(#71dd33a870)"><g clip-path="url(#b5ec4bc14c)"><g clip-path="url(#d45f2a6df2)"><g clip-path="url(#011db8640e)"><path fill="#000000" d="M 12.65625 14.511719 C 13.171875 15.347656 13.742188 16.019531 14.679688 16.90625 C 16.367188 18.5 17.683594 19.210938 21.714844 20.722656 C 22.519531 21.023438 24.523438 21.808594 26.167969 22.472656 L 29.15625 23.671875 L 29.097656 23.882812 C 29.011719 24.203125 29.03125 24.367188 29.179688 24.65625 C 29.417969 25.105469 29.992188 25.410156 30.425781 25.316406 C 30.660156 25.261719 30.929688 25.015625 31.066406 24.71875 C 31.121094 24.605469 31.179688 24.503906 31.203125 24.496094 C 31.226562 24.488281 31.765625 24.710938 32.402344 24.992188 C 33.695312 25.5625 34.554688 25.914062 35.488281 26.25 C 36.015625 26.4375 36.125 26.496094 36.195312 26.632812 C 36.3125 26.851562 36.652344 27.195312 36.921875 27.363281 C 37.257812 27.578125 37.542969 27.554688 38.003906 27.277344 C 38.453125 27.003906 38.652344 26.765625 38.828125 26.292969 C 39 25.820312 38.988281 25.292969 38.789062 24.84375 C 38.566406 24.332031 38.300781 24.1875 37.664062 24.222656 C 37.257812 24.246094 36.972656 24.152344 35.710938 23.589844 C 35.238281 23.378906 34.367188 23.011719 33.777344 22.777344 C 33.1875 22.542969 32.574219 22.296875 32.417969 22.230469 L 32.132812 22.113281 L 32.207031 21.859375 C 32.441406 21.070312 31.96875 20.453125 31.132812 20.460938 C 30.765625 20.464844 30.515625 20.601562 30.289062 20.917969 L 30.109375 21.171875 L 29.84375 21.070312 C 28.800781 20.675781 26.40625 19.476562 25.144531 18.714844 C 23.296875 17.601562 22.246094 16.488281 21.535156 14.882812 C 21.367188 14.5 21.191406 14.042969 21.148438 13.867188 C 20.984375 13.195312 20.964844 13.183594 19.75 13.085938 C 18.792969 13.011719 17.429688 12.789062 16.617188 12.574219 C 15.886719 12.386719 14.609375 11.929688 14.023438 11.65625 C 13.605469 11.457031 12.113281 10.46875 12.050781 10.34375 C 12.007812 10.265625 11.816406 10.261719 11.675781 10.339844 C 11.378906 10.496094 11.296875 11.257812 11.484375 12.121094 C 11.5625 12.472656 11.636719 12.644531 12.050781 13.417969 C 12.316406 13.90625 12.589844 14.402344 12.65625 14.511719 M 13.496094 14.464844 C 14.109375 15.238281 14.289062 15.449219 14.699219 15.875 C 15.246094 16.445312 15.964844 17.078125 16.5 17.460938 C 17.433594 18.125 19.019531 18.890625 21.15625 19.703125 C 21.773438 19.9375 22.4375 20.195312 22.628906 20.277344 C 22.820312 20.359375 23.523438 20.640625 24.191406 20.898438 C 26.019531 21.613281 28.011719 22.414062 28.535156 22.644531 C 28.792969 22.757812 29.09375 22.890625 29.210938 22.9375 L 29.417969 23.019531 L 29.644531 22.46875 C 29.765625 22.167969 29.863281 21.90625 29.855469 21.894531 C 29.847656 21.878906 29.574219 21.753906 29.246094 21.609375 C 27.730469 20.957031 25.863281 20.007812 24.730469 19.324219 C 22.730469 18.109375 21.457031 16.679688 20.601562 14.699219 C 20.355469 14.125 20.25 13.921875 20.203125 13.929688 C 20.09375 13.945312 18.789062 13.804688 18.246094 13.71875 C 15.996094 13.355469 13.820312 12.601562 12.59375 11.761719 L 12.253906 11.53125 L 12.273438 11.6875 C 12.335938 12.207031 12.429688 12.472656 12.871094 13.347656 C 13.125 13.84375 13.40625 14.347656 13.496094 14.464844 M 17.515625 16.921875 C 17.832031 17.226562 18.085938 17.359375 18.632812 17.511719 C 19.289062 17.695312 20.066406 17.714844 20.359375 17.5625 C 20.597656 17.4375 20.605469 17.332031 20.4375 16.621094 C 20.285156 15.96875 20.0625 15.566406 19.652344 15.195312 C 19.121094 14.71875 18.300781 14.640625 17.691406 15.007812 C 17.296875 15.242188 17.125 15.492188 17.097656 15.875 C 17.070312 16.222656 17.25 16.664062 17.515625 16.921875 M 18.195312 16.382812 C 18.414062 16.558594 18.734375 16.664062 19.183594 16.710938 C 19.59375 16.757812 19.601562 16.753906 19.578125 16.632812 C 19.480469 16.160156 19.03125 15.710938 18.613281 15.664062 C 18.34375 15.632812 18 15.75 17.941406 15.886719 C 17.894531 16.003906 18.011719 16.234375 18.195312 16.382812 M 30.035156 24.648438 C 30.269531 24.710938 30.421875 24.480469 30.710938 23.632812 C 30.855469 23.210938 31.082031 22.65625 31.214844 22.394531 C 31.558594 21.730469 31.683594 21.339844 31.589844 21.210938 C 31.496094 21.082031 31.234375 21.074219 31.105469 21.195312 C 31.015625 21.28125 30.082031 23.40625 29.910156 23.925781 C 29.828125 24.171875 29.808594 24.441406 29.867188 24.550781 C 29.886719 24.585938 29.960938 24.632812 30.035156 24.648438 M 31.714844 23.859375 C 32.210938 24.085938 35.578125 25.546875 35.808594 25.636719 L 36.058594 25.734375 L 36.121094 25.511719 C 36.152344 25.390625 36.25 25.1875 36.332031 25.058594 C 36.410156 24.929688 36.484375 24.8125 36.488281 24.800781 C 36.496094 24.789062 35.976562 24.550781 35.335938 24.265625 C 34.695312 23.984375 33.851562 23.609375 33.460938 23.433594 C 33.070312 23.253906 32.554688 23.042969 32.316406 22.960938 L 31.886719 22.808594 L 31.726562 23.207031 C 31.636719 23.421875 31.550781 23.636719 31.535156 23.683594 C 31.507812 23.746094 31.550781 23.785156 31.714844 23.859375 M 37.25 26.757812 C 37.5625 26.855469 37.914062 26.582031 38.101562 26.097656 C 38.214844 25.796875 38.21875 25.675781 38.125 25.304688 C 38.050781 25.03125 38.039062 25.011719 37.890625 24.960938 C 37.539062 24.839844 37.191406 25.042969 37.007812 25.476562 C 36.765625 26.058594 36.875 26.640625 37.25 26.757812 " fill-opacity="1" fill-rule="evenodd"/></g></g></g></g></g></g></g></g><g clip-path="url(#2885c93d95)"><g clip-path="url(#b573ecdf42)"><g clip-path="url(#b1572e2293)"><g clip-path="url(#8815023523)"><path fill="#000000" d="M 32.457031 24.816406 C 32.34375 24.859375 32.21875 24.886719 32.179688 24.878906 C 32.136719 24.871094 32.089844 24.890625 32.074219 24.921875 C 32.054688 24.949219 32.003906 25.273438 31.957031 25.640625 C 31.910156 26.011719 31.847656 26.46875 31.8125 26.660156 L 31.753906 27.007812 L 31.609375 27.011719 C 31.386719 27.015625 30.960938 27.316406 30.800781 27.585938 C 30.5625 27.984375 30.566406 28.269531 30.8125 28.5625 L 30.929688 28.707031 L 29.726562 29.539062 C 28.515625 30.382812 28.039062 30.648438 27.320312 30.890625 C 26.820312 31.054688 26.066406 31.226562 25.480469 31.308594 C 24.808594 31.398438 24.378906 31.542969 24.050781 31.78125 C 23.785156 31.976562 23.777344 31.992188 23.730469 32.25 C 23.675781 32.550781 23.734375 32.84375 23.886719 33.042969 C 23.949219 33.128906 23.976562 33.226562 23.964844 33.316406 C 23.910156 33.652344 24.125 34.191406 24.347656 34.285156 C 24.457031 34.332031 24.476562 34.367188 24.460938 34.460938 C 24.429688 34.625 24.722656 35.019531 24.960938 35.128906 C 25.167969 35.230469 25.460938 35.25 25.621094 35.175781 C 25.789062 35.097656 25.824219 35.125 25.890625 35.382812 C 25.960938 35.667969 26.007812 35.734375 26.308594 35.96875 C 26.515625 36.128906 26.578125 36.152344 26.996094 36.226562 C 27.789062 36.363281 28.65625 36.234375 30.558594 35.699219 C 32.371094 35.1875 32.449219 35.183594 34.460938 35.566406 C 35.726562 35.808594 36.050781 35.855469 36.285156 35.839844 C 37.195312 35.773438 37.785156 35.257812 38.054688 34.289062 C 38.230469 33.652344 38.199219 33.257812 37.839844 31.570312 C 37.738281 31.074219 37.644531 30.523438 37.636719 30.34375 L 37.621094 30.019531 L 37.863281 29.867188 C 38.15625 29.679688 38.25 29.503906 38.308594 29.046875 C 38.347656 28.753906 38.339844 28.671875 38.257812 28.511719 C 38.148438 28.296875 37.976562 28.148438 37.804688 28.117188 C 37.691406 28.09375 37.6875 28.085938 37.746094 27.785156 C 37.777344 27.617188 37.886719 27.234375 37.984375 26.933594 L 38.167969 26.390625 L 37.558594 26.28125 L 37.300781 27.117188 C 37.15625 27.578125 37.015625 27.996094 36.988281 28.042969 C 36.886719 28.210938 35.949219 28.195312 34.664062 28.003906 C 33.773438 27.867188 33.042969 27.671875 32.570312 27.4375 L 32.375 27.339844 L 32.46875 26.652344 C 32.515625 26.273438 32.59375 25.6875 32.636719 25.351562 C 32.683594 25.015625 32.707031 24.742188 32.6875 24.742188 C 32.671875 24.742188 32.566406 24.773438 32.457031 24.816406 M 37.230469 28.648438 C 37.121094 28.761719 37.046875 29.101562 37.097656 29.265625 C 37.160156 29.457031 37.519531 29.59375 37.621094 29.460938 C 37.652344 29.421875 37.707031 29.296875 37.742188 29.183594 C 37.832031 28.894531 37.730469 28.652344 37.492188 28.585938 C 37.359375 28.550781 37.3125 28.5625 37.230469 28.648438 M 31.527344 27.632812 C 31.414062 27.722656 31.222656 28.078125 31.238281 28.171875 C 31.257812 28.265625 31.433594 28.378906 31.617188 28.410156 C 31.804688 28.445312 31.9375 28.332031 31.976562 28.109375 C 32.046875 27.734375 31.773438 27.445312 31.527344 27.632812 M 35.757812 28.742188 C 35.570312 28.839844 35.496094 28.976562 35.511719 29.167969 C 35.535156 29.378906 35.660156 29.558594 35.832031 29.625 C 36.09375 29.722656 36.347656 29.554688 36.402344 29.246094 C 36.429688 29.105469 36.410156 29.039062 36.296875 28.894531 C 36.136719 28.683594 35.964844 28.632812 35.757812 28.742188 M 32.828125 28.195312 C 32.734375 28.234375 32.625 28.4375 32.585938 28.652344 C 32.550781 28.851562 32.625 29.011719 32.800781 29.113281 C 32.960938 29.203125 33.378906 28.960938 33.417969 28.757812 C 33.441406 28.617188 33.34375 28.359375 33.238281 28.285156 C 33.121094 28.203125 32.914062 28.160156 32.828125 28.195312 M 34.335938 28.632812 C 34.265625 28.652344 34.160156 28.738281 34.097656 28.824219 C 34 28.953125 33.984375 29.007812 34.007812 29.148438 C 34.046875 29.441406 34.308594 29.644531 34.511719 29.535156 C 34.699219 29.433594 34.832031 29.035156 34.753906 28.789062 C 34.703125 28.625 34.554688 28.570312 34.335938 28.632812 M 36.65625 29.871094 C 36.492188 30.050781 36.164062 30.210938 35.953125 30.214844 C 35.746094 30.214844 35.425781 30.058594 35.28125 29.886719 L 35.171875 29.753906 L 34.988281 29.890625 C 34.886719 29.964844 34.722656 30.042969 34.628906 30.0625 C 34.238281 30.148438 33.710938 29.941406 33.550781 29.636719 L 33.476562 29.496094 L 33.261719 29.5625 C 33.121094 29.605469 32.9375 29.613281 32.722656 29.589844 C 32.335938 29.539062 32.175781 29.421875 32.082031 29.117188 L 32.023438 28.921875 L 31.785156 28.929688 C 31.5625 28.933594 31.511719 28.960938 31.082031 29.300781 C 30.539062 29.734375 29.277344 30.59375 28.789062 30.867188 C 27.914062 31.359375 26.449219 31.835938 25.304688 32 C 24.660156 32.09375 24.414062 32.238281 24.367188 32.554688 C 24.320312 32.855469 24.4375 32.867188 24.980469 32.605469 C 25.289062 32.460938 25.921875 32.289062 26.132812 32.292969 C 26.324219 32.296875 26.472656 32.464844 26.441406 32.640625 C 26.414062 32.789062 26.113281 32.980469 25.777344 33.0625 C 24.671875 33.335938 24.613281 33.355469 24.589844 33.492188 C 24.554688 33.679688 24.621094 33.746094 24.886719 33.792969 C 25.214844 33.851562 25.441406 33.773438 26.011719 33.410156 C 26.703125 32.96875 27.007812 32.898438 27.21875 33.136719 C 27.449219 33.398438 27.253906 33.566406 26.304688 33.921875 C 25.957031 34.050781 25.574219 34.191406 25.457031 34.230469 C 25.339844 34.269531 25.238281 34.324219 25.234375 34.351562 C 25.222656 34.429688 25.449219 34.605469 25.605469 34.632812 C 25.71875 34.652344 25.832031 34.605469 26.148438 34.402344 C 26.46875 34.195312 26.667969 34.113281 27.132812 33.984375 C 27.832031 33.792969 27.976562 33.785156 28.085938 33.945312 C 28.292969 34.242188 28.050781 34.40625 27.152344 34.578125 C 26.5 34.703125 26.371094 34.820312 26.503906 35.15625 C 26.617188 35.457031 26.949219 35.625 27.394531 35.617188 C 28.28125 35.597656 29.332031 35.40625 30.796875 34.988281 C 32.214844 34.582031 32.730469 34.5625 34.054688 34.867188 C 35.289062 35.148438 36.078125 35.265625 36.394531 35.207031 C 36.742188 35.144531 37.070312 34.914062 37.269531 34.59375 C 37.394531 34.386719 37.4375 34.261719 37.503906 33.886719 C 37.597656 33.347656 37.570312 33.074219 37.296875 31.964844 C 37.105469 31.191406 37.023438 30.671875 37.019531 30.199219 C 37.015625 29.949219 37 29.886719 36.902344 29.8125 C 36.789062 29.726562 36.78125 29.730469 36.65625 29.871094 M 41.027344 42.582031 C 40.921875 42.644531 40.894531 42.679688 40.941406 42.691406 C 41.046875 42.710938 41.203125 42.625 41.195312 42.550781 C 41.1875 42.507812 41.136719 42.515625 41.027344 42.582031 " fill-opacity="1" fill-rule="evenodd"/></g></g></g></g></g></g></g></svg>